<svg role="img" width="32" height="35" viewBox="0 0 32 35" fill="none" xmlns="http://www.w3.org/2000/svg">
  <title>ACME Logo</title>
  <path d="M4.65573 16.011H0.00138532L5.24528 0.215948L11.1408 0.215948L16.3847 16.011H11.7303L8.25509 4.56576H8.13097L4.65573 16.011ZM3.78692 9.77936L12.5371 9.77936V12.9877L3.78692 12.9877L3.78692 9.77936Z" />
  <path d="M32 6.13909L27.6249 6.13909C27.5939 5.77918 27.5111 5.45269 27.3767 5.15962C27.2474 4.86654 27.0664 4.6146 26.8337 4.4038C26.6061 4.18785 26.3295 4.02332 26.0037 3.9102C25.6778 3.79194 25.3081 3.73282 24.8944 3.73282C24.1704 3.73282 23.5575 3.90763 23.0559 4.25726C22.5594 4.60689 22.1819 5.1082 21.9233 5.76119C21.6699 6.41417 21.5432 7.19827 21.5432 8.11348C21.5432 9.0801 21.6725 9.88991 21.9311 10.5429C22.1949 11.1907 22.575 11.6792 23.0714 12.0083C23.5679 12.3322 24.1652 12.4941 24.8633 12.4941C25.2615 12.4941 25.6184 12.4453 25.9338 12.3476C26.2493 12.2448 26.5234 12.0982 26.7561 11.908C26.9888 11.7178 27.1776 11.4889 27.3224 11.2216C27.4724 10.9491 27.5732 10.6432 27.6249 10.3038L32 10.3347C31.9483 11.0031 31.7595 11.6843 31.4337 12.3784C31.1079 13.0674 30.6451 13.705 30.0452 14.2911C29.4505 14.8721 28.7135 15.34 27.8344 15.6948C26.9552 16.0496 25.9338 16.227 24.7703 16.227C23.3119 16.227 22.0035 15.9159 20.8451 15.2937C19.6918 14.6716 18.7791 13.7564 18.1068 12.5481C17.4397 11.3398 17.1061 9.86163 17.1061 8.11348C17.1061 6.35504 17.4474 4.87426 18.1301 3.67112C18.8127 2.46284 19.7332 1.5502 20.8916 0.933204C22.05 0.311068 23.3429 0 24.7703 0C25.7735 0 26.6966 0.136253 27.5396 0.408758C28.3825 0.681265 29.1221 1.07974 29.7582 1.60419C30.3943 2.12349 30.9062 2.76362 31.2941 3.52458C31.682 4.28554 31.9173 5.15704 32 6.13909Z" />
  <path d="M0 18.8716H5.36801L9.06046 27.818H9.24663L12.9391 18.8716H18.3071L18.3071 34.6667H14.0871L14.0871 25.5352H13.963L10.4257 34.5433H7.88136L4.34405 25.4735H4.21994L4.21994 34.6667H0L0 18.8716Z" />
  <path d="M20.3511 34.6667L20.3511 18.8716H31.8008V22.3268H24.6641V25.0416H31.2113V28.4967H24.6641V31.2115H31.7698L31.7698 34.6667L20.3511 34.6667Z" />
</svg>
