<svg role="img" width="130" height="32" viewBox="0 0 130 32" fill="none" xmlns="http://www.w3.org/2000/svg">
	<title>ACME Logo</title>
	<path d="M9.20164 31.5741H0L10.3672 0.425856H22.0226L32.3898 31.5741H23.1881L16.3176 9.0038H16.0722L9.20164 31.5741ZM7.484 19.2852H24.7831V25.6122H7.484V19.2852Z" fill="#3E414C" />
	<path d="M63.2613 12.1065H54.6117C54.5504 11.3967 54.3868 10.7529 54.121 10.1749C53.8654 9.59696 53.5075 9.10013 53.0475 8.68441C52.5976 8.25856 52.0506 7.93409 51.4065 7.71103C50.7624 7.47782 50.0314 7.36122 49.2134 7.36122C47.7821 7.36122 46.5705 7.70596 45.5788 8.39544C44.5973 9.08492 43.8509 10.0735 43.3397 11.3612C42.8387 12.6489 42.5883 14.1952 42.5883 16C42.5883 17.9062 42.8439 19.5032 43.3551 20.7909C43.8765 22.0684 44.628 23.0317 45.6095 23.6806C46.591 24.3194 47.7718 24.6388 49.1521 24.6388C49.9393 24.6388 50.6448 24.5425 51.2685 24.3498C51.8921 24.147 52.434 23.8581 52.8941 23.4829C53.3542 23.1077 53.7274 22.6565 54.0136 22.1293C54.3101 21.5919 54.5095 20.9886 54.6117 20.3194L63.2613 20.3802C63.159 21.6984 62.7859 23.0418 62.1417 24.4106C61.4976 25.7693 60.5826 27.0266 59.3966 28.1825C58.2208 29.3283 56.7639 30.2509 55.0258 30.9506C53.2877 31.6502 51.2685 32 48.9681 32C46.0849 32 43.4982 31.3866 41.208 30.1597C38.928 28.9328 37.1235 27.128 35.7944 24.7452C34.4755 22.3625 33.816 19.4474 33.816 16C33.816 12.5323 34.4908 9.61217 35.8404 7.23955C37.19 4.85678 39.0098 3.05703 41.3 1.8403C43.5902 0.613435 46.1462 0 48.9681 0C50.9515 0 52.7765 0.268694 54.443 0.806083C56.1096 1.34347 57.5716 2.12928 58.8291 3.1635C60.0867 4.18758 61.0989 5.44994 61.8657 6.95057C62.6325 8.4512 63.0977 10.1698 63.2613 12.1065Z" fill="#3E414C" />
	<path d="M67.1298 0.425856H77.7424L85.0423 18.0684H85.4104L92.7104 0.425856H103.323V31.5741H94.9801V13.5665H94.7347L87.7415 31.3308H82.7112L75.718 13.4449H75.4726V31.5741H67.1298V0.425856Z" fill="#3E414C" />
	<path d="M107.364 31.5741V0.425856H130V7.23955H115.891V12.5932H128.834V19.4068H115.891V24.7605H129.939V31.5741H107.364Z" fill="#3E414C" />
</svg>