<svg role="img" width="96" height="24" viewBox="0 0 96 24" fill="none" xmlns="http://www.w3.org/2000/svg">
<title>ACME Logo</title>
<path d="M6.85698 23.6806H0L7.72553 0.319392H16.411L24.1366 23.6806H17.2796L12.1597 6.75285H11.9769L6.85698 23.6806ZM5.57701 14.4639H18.4681V19.2091H5.57701V14.4639Z" fill="#ABAFBD"/>
<path d="M46.2669 9.07985H39.8213C39.7756 8.54753 39.6537 8.06464 39.4556 7.63118C39.2651 7.19772 38.9985 6.82509 38.6556 6.51331C38.3204 6.19392 37.9128 5.95057 37.4328 5.78327C36.9528 5.60836 36.4081 5.52091 35.7985 5.52091C34.7319 5.52091 33.8291 5.77947 33.09 6.29658C32.3586 6.81369 31.8025 7.55513 31.4215 8.52091C31.0482 9.48669 30.8615 10.6464 30.8615 12C30.8615 13.4297 31.052 14.6274 31.4329 15.5932C31.8215 16.5513 32.3815 17.2738 33.1129 17.7605C33.8443 18.2395 34.7243 18.4791 35.7528 18.4791C36.3395 18.4791 36.8652 18.4068 37.3299 18.2624C37.7947 18.1103 38.1985 17.8935 38.5413 17.6122C38.8842 17.3308 39.1623 16.9924 39.3756 16.597C39.5966 16.1939 39.7451 15.7414 39.8213 15.2395L46.2669 15.2852C46.1907 16.2738 45.9126 17.2814 45.4326 18.308C44.9526 19.327 44.2707 20.27 43.3869 21.1369C42.5108 21.9962 41.4251 22.6882 40.1299 23.2129C38.8347 23.7376 37.3299 24 35.6157 24C33.4672 24 31.5396 23.5399 29.833 22.6198C28.134 21.6996 26.7892 20.346 25.7988 18.5589C24.816 16.7719 24.3245 14.5856 24.3245 12C24.3245 9.39924 24.8274 7.20913 25.8331 5.42966C26.8388 3.64259 28.1949 2.29278 29.9015 1.38023C31.6082 0.460076 33.5129 0 35.6157 0C37.0938 0 38.4537 0.201521 39.6956 0.604562C40.9375 1.0076 42.027 1.59696 42.9641 2.37262C43.9012 3.14068 44.6555 4.08745 45.2269 5.21293C45.7983 6.3384 46.145 7.62738 46.2669 9.07985Z" fill="#ABAFBD"/>
<path d="M49.1497 0.319392H57.0581L62.4979 13.5513H62.7722L68.2121 0.319392H76.1205V23.6806H69.9035V10.1749H69.7206L64.5093 23.4981H60.7608L55.5495 10.0836H55.3667V23.6806H49.1497V0.319392Z" fill="#ABAFBD"/>
<path d="M79.1318 23.6806V0.319392H96V5.42966H85.486V9.44487H95.1314V14.5551H85.486V18.5703H95.9543V23.6806H79.1318Z" fill="#ABAFBD"/>
</svg>
