<svg width="30" height="30" viewBox="0 0 30 30" fill="none" xmlns="http://www.w3.org/2000/svg">
<path d="M25.9789 24.6957C13.5966 30.5887 5.91204 25.6582 0.992898 22.6636C0.688504 22.4748 0.171139 22.7077 0.620024 23.2233C2.25884 25.2104 7.62957 29.9999 14.6399 29.9999C21.6551 29.9999 25.8285 26.1721 26.3506 25.5043C26.8692 24.8422 26.5029 24.477 25.9788 24.6957H25.9789ZM29.4565 22.7752C29.1239 22.3422 27.4345 22.2615 26.3713 22.3921C25.3065 22.519 23.7081 23.1698 23.8471 23.5605C23.9184 23.7069 24.0639 23.6412 24.7955 23.5755C25.529 23.5023 27.5838 23.2429 28.012 23.8027C28.4422 24.3663 27.3566 27.0511 27.1584 27.4841C26.9668 27.9171 27.2316 28.0288 27.5914 27.7404C27.9462 27.4521 28.5887 26.7055 29.0198 25.649C29.448 24.5868 29.7091 23.1049 29.4563 22.7752H29.4565Z" />
<path fill-rule="evenodd" clip-rule="evenodd" d="M17.653 12.6714C17.653 14.2176 17.6921 15.5071 16.9106 16.8802C16.2798 17.9967 15.2806 18.6833 14.1642 18.6833C12.6402 18.6833 11.7527 17.5222 11.7527 15.8085C11.7527 12.4257 14.7837 11.8117 17.653 11.8117V12.6714ZM21.6554 22.3452C21.393 22.5796 21.0134 22.5964 20.7176 22.44C19.4002 21.346 19.1657 20.838 18.4401 19.7941C16.2631 22.0158 14.7224 22.68 11.8979 22.68C8.55979 22.68 5.9585 20.6202 5.9585 16.4951C5.9585 13.2743 7.70579 11.0805 10.1897 10.0088C12.3444 9.05971 15.3532 8.89228 17.653 8.63001V8.11641C17.653 7.17298 17.7255 6.05659 17.173 5.24166C16.6873 4.51038 15.7607 4.20893 14.9456 4.20893C13.4329 4.20893 12.082 4.9848 11.7527 6.59243C11.6856 6.94978 11.4234 7.30147 11.0661 7.31818L7.21443 6.90518C6.89074 6.83247 6.53352 6.5702 6.62282 6.0733C7.51036 1.40678 11.7247 0 15.4982 0C17.4296 0 19.9527 0.5136 21.4766 1.97615C23.4081 3.77911 23.2238 6.18497 23.2238 8.80297V14.9879C23.2238 16.8468 23.9941 17.6617 24.7198 18.6666C24.9765 19.0238 25.0324 19.4537 24.7086 19.7215C23.8992 20.3969 22.459 21.653 21.6664 22.3564L21.6552 22.3452" />
<path d="M25.9789 24.6957C13.5966 30.5887 5.91204 25.6582 0.992898 22.6636C0.688504 22.4748 0.171139 22.7077 0.620024 23.2233C2.25884 25.2104 7.62957 29.9999 14.6399 29.9999C21.6551 29.9999 25.8285 26.1721 26.3506 25.5043C26.8692 24.8422 26.5029 24.477 25.9788 24.6957H25.9789ZM29.4565 22.7752C29.1239 22.3422 27.4345 22.2615 26.3713 22.3921C25.3065 22.519 23.7081 23.1698 23.8471 23.5605C23.9184 23.7069 24.0639 23.6412 24.7955 23.5755C25.529 23.5023 27.5838 23.2429 28.012 23.8027C28.4422 24.3663 27.3566 27.0511 27.1584 27.4841C26.9668 27.9171 27.2316 28.0288 27.5914 27.7404C27.9462 27.4521 28.5887 26.7055 29.0198 25.649C29.448 24.5868 29.7091 23.1049 29.4563 22.7752H29.4565Z" />
<path fill-rule="evenodd" clip-rule="evenodd" d="M17.653 12.6714C17.653 14.2176 17.6921 15.5071 16.9106 16.8802C16.2798 17.9967 15.2806 18.6833 14.1642 18.6833C12.6402 18.6833 11.7527 17.5222 11.7527 15.8085C11.7527 12.4257 14.7837 11.8117 17.653 11.8117V12.6714ZM21.6554 22.3452C21.393 22.5796 21.0134 22.5964 20.7176 22.44C19.4002 21.346 19.1657 20.838 18.4401 19.7941C16.2631 22.0158 14.7224 22.68 11.8979 22.68C8.55979 22.68 5.9585 20.6202 5.9585 16.4951C5.9585 13.2743 7.70579 11.0805 10.1897 10.0088C12.3444 9.05971 15.3532 8.89228 17.653 8.63001V8.11641C17.653 7.17298 17.7255 6.05659 17.173 5.24166C16.6873 4.51038 15.7607 4.20893 14.9456 4.20893C13.4329 4.20893 12.082 4.9848 11.7527 6.59243C11.6856 6.94978 11.4234 7.30147 11.0661 7.31818L7.21443 6.90518C6.89074 6.83247 6.53352 6.5702 6.62282 6.0733C7.51036 1.40678 11.7247 0 15.4982 0C17.4296 0 19.9527 0.5136 21.4766 1.97615C23.4081 3.77911 23.2238 6.18497 23.2238 8.80297V14.9879C23.2238 16.8468 23.9941 17.6617 24.7198 18.6666C24.9765 19.0238 25.0324 19.4537 24.7086 19.7215C23.8992 20.3969 22.459 21.653 21.6664 22.3564L21.6552 22.3452" />
</svg>
