<svg width="40" height="40" viewBox="0 0 40 40" fill="none" xmlns="http://www.w3.org/2000/svg">
<path d="M30.9789 29.6957C18.5966 35.5887 10.912 30.6582 5.9929 27.6636C5.6885 27.4748 5.17114 27.7077 5.62002 28.2233C7.25884 30.2104 12.6296 34.9999 19.6399 34.9999C26.6551 34.9999 30.8285 31.1721 31.3506 30.5043C31.8692 29.8422 31.503 29.477 30.9789 29.6957ZM34.4565 27.7752C34.1239 27.3422 32.4345 27.2615 31.3713 27.3921C30.3065 27.519 28.7081 28.1698 28.8471 28.5605C28.9184 28.7069 29.0639 28.6412 29.7955 28.5755C30.529 28.5023 32.5838 28.2429 33.012 28.8027C33.4422 29.3663 32.3566 32.0511 32.1584 32.4841C31.9668 32.9171 32.2316 33.0288 32.5914 32.7404C32.9462 32.4521 33.5887 31.7055 34.0198 30.649C34.448 29.5868 34.7092 28.1049 34.4565 27.7752Z"/>
<path fill-rule="evenodd" clip-rule="evenodd" d="M22.6531 17.6714C22.6531 19.2176 22.6922 20.5071 21.9107 21.8802C21.2799 22.9967 20.2807 23.6833 19.1643 23.6833C17.6403 23.6833 16.7528 22.5222 16.7528 20.8085C16.7528 17.4257 19.7838 16.8117 22.6531 16.8117V17.6714ZM26.6554 27.3452C26.393 27.5796 26.0135 27.5964 25.7177 27.44C24.4003 26.346 24.1658 25.838 23.4402 24.7941C21.2632 27.0158 19.7225 27.68 16.898 27.68C13.5599 27.68 10.9586 25.6202 10.9586 21.4951C10.9586 18.2743 12.7059 16.0805 15.1897 15.0088C17.3445 14.0597 20.3533 13.8923 22.6531 13.63V13.1164C22.6531 12.173 22.7256 11.0566 22.1731 10.2417C21.6873 9.51038 20.7607 9.20893 19.9457 9.20893C18.433 9.20893 17.0821 9.9848 16.7528 11.5924C16.6857 11.9498 16.4234 12.3015 16.0662 12.3182L12.2145 11.9052C11.8908 11.8325 11.5336 11.5702 11.6229 11.0733C12.5104 6.40678 16.7248 5 20.4982 5C22.4297 5 24.9527 5.5136 26.4767 6.97615C28.4081 8.77911 28.2239 11.185 28.2239 13.803V19.9879C28.2239 21.8468 28.9942 22.6617 29.7199 23.6666C29.9766 24.0238 30.0325 24.4537 29.7087 24.7215C28.8993 25.3969 27.4591 26.653 26.6665 27.3564L26.6554 27.3452Z" />
<path d="M30.9789 29.6957C18.5966 35.5887 10.912 30.6582 5.9929 27.6636C5.6885 27.4748 5.17114 27.7077 5.62002 28.2233C7.25884 30.2104 12.6296 34.9999 19.6399 34.9999C26.6551 34.9999 30.8285 31.1721 31.3506 30.5043C31.8692 29.8422 31.503 29.477 30.9789 29.6957ZM34.4565 27.7752C34.1239 27.3422 32.4345 27.2615 31.3713 27.3921C30.3065 27.519 28.7081 28.1698 28.8471 28.5605C28.9184 28.7069 29.0639 28.6412 29.7955 28.5755C30.529 28.5023 32.5838 28.2429 33.012 28.8027C33.4422 29.3663 32.3566 32.0511 32.1584 32.4841C31.9668 32.9171 32.2316 33.0288 32.5914 32.7404C32.9462 32.4521 33.5887 31.7055 34.0198 30.649C34.448 29.5868 34.7092 28.1049 34.4565 27.7752Z" />
<path fill-rule="evenodd" clip-rule="evenodd" d="M22.6531 17.6714C22.6531 19.2176 22.6922 20.5071 21.9107 21.8802C21.2799 22.9967 20.2807 23.6833 19.1643 23.6833C17.6403 23.6833 16.7528 22.5222 16.7528 20.8085C16.7528 17.4257 19.7838 16.8117 22.6531 16.8117V17.6714ZM26.6554 27.3452C26.393 27.5796 26.0135 27.5964 25.7177 27.44C24.4003 26.346 24.1658 25.838 23.4402 24.7941C21.2632 27.0158 19.7225 27.68 16.898 27.68C13.5599 27.68 10.9586 25.6202 10.9586 21.4951C10.9586 18.2743 12.7059 16.0805 15.1897 15.0088C17.3445 14.0597 20.3533 13.8923 22.6531 13.63V13.1164C22.6531 12.173 22.7256 11.0566 22.1731 10.2417C21.6873 9.51038 20.7607 9.20893 19.9457 9.20893C18.433 9.20893 17.0821 9.9848 16.7528 11.5924C16.6857 11.9498 16.4234 12.3015 16.0662 12.3182L12.2145 11.9052C11.8908 11.8325 11.5336 11.5702 11.6229 11.0733C12.5104 6.40678 16.7248 5 20.4982 5C22.4297 5 24.9527 5.5136 26.4767 6.97615C28.4081 8.77911 28.2239 11.185 28.2239 13.803V19.9879C28.2239 21.8468 28.9942 22.6617 29.7199 23.6666C29.9766 24.0238 30.0325 24.4537 29.7087 24.7215C28.8993 25.3969 27.4591 26.653 26.6665 27.3564L26.6554 27.3452Z"/>
</svg>
