<!-- https://fonts.google.com/icons?selected=Material%20Icons%3Acall_to_action%3A -->
<svg width="40" height="40" viewBox="0 0 40 40" fill="none" xmlns="http://www.w3.org/2000/svg">
	<path d="M11.292 16.083H28.708C29.1247 16.083 29.465 15.951 29.729 15.687C29.993 15.423 30.125 15.0967 30.125 14.708V12.875C30.125 12.4857 29.993 12.159 29.729 11.895C29.465 11.6317 29.1247 11.5 28.708 11.5H11.292C10.8753 11.5 10.535 11.6317 10.271 11.895C10.007 12.159 9.87501 12.4857 9.87501 12.875V14.708C9.87501 15.0967 10.007 15.423 10.271 15.687C10.535 15.951 10.8753 16.083 11.292 16.083ZM6.12501 33.333C5.37501 33.333 4.72234 33.0553 4.16701 32.5C3.61101 31.9447 3.33301 31.292 3.33301 30.542V9.45799C3.33301 8.70799 3.61101 8.05533 4.16701 7.49999C4.72234 6.94466 5.37501 6.66699 6.12501 6.66699H33.875C34.653 6.66699 35.3127 6.94466 35.854 7.49999C36.396 8.05533 36.667 8.70799 36.667 9.45799V30.542C36.667 31.292 36.396 31.9447 35.854 32.5C35.3127 33.0553 34.653 33.333 33.875 33.333H6.12501Z" />
</svg>
	