<!-- https://fonts.google.com/icons?selected=Material%20Icons%3Acelebration%3A -->
<svg width="40" height="40" viewBox="0 0 40 40" fill="none" xmlns="http://www.w3.org/2000/svg">
	<path d="M6.12507 35.708C5.56974 35.9027 5.07674 35.7847 4.64607 35.354C4.21541 34.9233 4.0974 34.4303 4.29207 33.875L9.79207 18.583C10.1254 17.583 10.7921 16.979 11.7921 16.771C12.7921 16.5623 13.6531 16.8053 14.3751 17.5L22.5001 25.583C23.2501 26.3057 23.5141 27.167 23.2921 28.167C23.0694 29.167 22.4721 29.8337 21.5001 30.167L6.12507 35.708ZM22.7921 20.5C22.5694 20.3053 22.4581 20.0553 22.4581 19.75C22.4581 19.4447 22.5694 19.1947 22.7921 19L31.7921 9.95799C32.6807 9.06933 33.7917 8.62499 35.1251 8.62499C36.4584 8.62499 37.5694 9.06933 38.4581 9.95799L38.5421 10.042C38.7361 10.236 38.8331 10.472 38.8331 10.75C38.8331 11.028 38.7221 11.278 38.5001 11.5C38.2781 11.722 38.0211 11.833 37.7291 11.833C37.4377 11.833 37.1807 11.722 36.9581 11.5L36.8751 11.417C36.3751 10.9443 35.7987 10.7013 35.1461 10.688C34.4934 10.674 33.9171 10.917 33.4171 11.417L24.2921 20.542C24.0694 20.764 23.8194 20.875 23.5421 20.875C23.2641 20.875 23.0141 20.75 22.7921 20.5ZM16.1671 14C15.9444 13.778 15.8331 13.521 15.8331 13.229C15.8331 12.9377 15.9444 12.6807 16.1671 12.458L16.5421 12.042C17.0974 11.486 17.3611 10.847 17.3331 10.125C17.3057 9.40299 17.0421 8.79199 16.5421 8.29199L16.1251 7.87499C15.9304 7.65299 15.8331 7.40299 15.8331 7.12499C15.8331 6.84699 15.9444 6.59699 16.1671 6.37499C16.3891 6.15299 16.6461 6.04199 16.9381 6.04199C17.2294 6.04199 17.4861 6.15299 17.7081 6.37499L18.0421 6.70799C18.9861 7.65266 19.4514 8.81266 19.4381 10.188C19.4241 11.5627 18.9447 12.7223 18.0001 13.667L17.6251 14.042C17.4304 14.236 17.1944 14.333 16.9171 14.333C16.6391 14.333 16.3891 14.222 16.1671 14ZM19.5001 17.25C19.3054 17.028 19.2081 16.771 19.2081 16.479C19.2081 16.1877 19.3054 15.9307 19.5001 15.708L24.9581 10.25C25.4581 9.77799 25.7014 9.16699 25.6881 8.41699C25.6741 7.66699 25.4307 7.05566 24.9581 6.58299L23.0831 4.70799C22.8891 4.51399 22.7921 4.27799 22.7921 3.99999C22.7921 3.72199 22.9031 3.47199 23.1251 3.24999C23.3471 3.02799 23.6041 2.91699 23.8961 2.91699C24.1874 2.91699 24.4444 3.02799 24.6671 3.24999L26.5421 5.12499C27.4027 6.01366 27.8401 7.11099 27.8541 8.41699C27.8681 9.72233 27.4307 10.8193 26.5421 11.708L21.0001 17.292C20.8054 17.486 20.5694 17.583 20.2921 17.583C20.0141 17.583 19.7501 17.472 19.5001 17.25ZM26.1251 23.875C25.9031 23.653 25.7921 23.396 25.7921 23.104C25.7921 22.8127 25.9031 22.5557 26.1251 22.333L27.5421 20.917C28.4861 19.9723 29.6247 19.493 30.9581 19.479C32.2914 19.465 33.4304 19.9303 34.3751 20.875L35.9581 22.458C36.1527 22.6527 36.2501 22.889 36.2501 23.167C36.2501 23.4443 36.1391 23.6943 35.9171 23.917C35.6944 24.139 35.4374 24.25 35.1461 24.25C34.8541 24.25 34.5971 24.139 34.3751 23.917L32.7921 22.375C32.2361 21.8197 31.6317 21.542 30.9791 21.542C30.3264 21.542 29.7224 21.8197 29.1671 22.375L27.6251 23.917C27.4031 24.111 27.1531 24.208 26.8751 24.208C26.5971 24.208 26.3471 24.097 26.1251 23.875Z" />
</svg>
	