<svg width="40" height="40" viewBox="0 0 40 40" xmlns="http://www.w3.org/2000/svg">
<mask id="mask0_933_3079" style="mask-type:alpha" maskUnits="userSpaceOnUse" x="0" y="0" width="40" height="40">
<rect width="40" height="40" />
</mask>
<g mask="url(#mask0_933_3079)">
<path d="M17.583 23.542L13.667 19.583C13.389 19.333 13.0557 19.208 12.667 19.208C12.2777 19.208 11.9443 19.347 11.667 19.625C11.389 19.903 11.25 20.2433 11.25 20.646C11.25 21.0487 11.375 21.389 11.625 21.667L16.625 26.625C16.875 26.875 17.1943 27 17.583 27C17.9723 27 18.292 26.875 18.542 26.625L28.375 16.833C28.653 16.5557 28.792 16.2223 28.792 15.833C28.792 15.4443 28.639 15.0973 28.333 14.792C28.0557 14.542 27.7153 14.417 27.312 14.417C26.9093 14.417 26.5693 14.5557 26.292 14.833L17.583 23.542ZM20 36.667C17.6667 36.667 15.486 36.2363 13.458 35.375C11.4307 34.5137 9.66701 33.333 8.16701 31.833C6.66701 30.333 5.48634 28.5693 4.62501 26.542C3.76367 24.514 3.33301 22.3333 3.33301 20C3.33301 17.6667 3.76367 15.486 4.62501 13.458C5.48634 11.4307 6.66701 9.66701 8.16701 8.16701C9.66701 6.66701 11.4307 5.48634 13.458 4.62501C15.486 3.76367 17.6667 3.33301 20 3.33301C22.3333 3.33301 24.514 3.76367 26.542 4.62501C28.5693 5.48634 30.333 6.66701 31.833 8.16701C33.333 9.66701 34.5137 11.4307 35.375 13.458C36.2363 15.486 36.667 17.6667 36.667 20C36.667 22.3333 36.2363 24.514 35.375 26.542C34.5137 28.5693 33.333 30.333 31.833 31.833C30.333 33.333 28.5693 34.5137 26.542 35.375C24.514 36.2363 22.3333 36.667 20 36.667Z" />
</g>
</svg>
