<svg width="40" height="40" viewBox="0 0 40 40" xmlns="http://www.w3.org/2000/svg">
<path d="M19.9999 25.0419C19.8052 25.0419 19.6316 25.0139 19.4789 24.9579C19.3262 24.9026 19.1806 24.8056 19.0419 24.6669L10.9579 16.5829C10.7079 16.3329 10.5899 16.0066 10.6039 15.6039C10.6179 15.2013 10.7499 14.8749 10.9999 14.6249C11.2779 14.3469 11.6042 14.2219 11.9789 14.2499C12.3542 14.2779 12.6806 14.4169 12.9579 14.6669L19.9999 21.7079L27.0829 14.6249C27.3329 14.3749 27.6592 14.2429 28.0619 14.2289C28.4652 14.2149 28.7919 14.3609 29.0419 14.6669C29.3192 14.9169 29.4442 15.2363 29.4169 15.6249C29.3889 16.0136 29.2499 16.3469 28.9999 16.6249L20.9579 24.6669C20.8192 24.8056 20.6736 24.9026 20.5209 24.9579C20.3682 25.0139 20.1946 25.0419 19.9999 25.0419Z" />
</svg>
