<svg width="40" height="40" viewBox="0 0 40 40" xmlns="http://www.w3.org/2000/svg">
<path d="M11 24.625C10.722 24.347 10.583 24.0207 10.583 23.646C10.583 23.2707 10.708 22.9443 10.958 22.667L19.042 14.625C19.1807 14.4863 19.3263 14.3823 19.479 14.313C19.6317 14.243 19.8053 14.208 20 14.208C20.1947 14.208 20.3683 14.243 20.521 14.313C20.6737 14.3823 20.8193 14.4863 20.958 14.625L29.042 22.667C29.3193 22.917 29.458 23.2293 29.458 23.604C29.458 23.9793 29.3193 24.3057 29.042 24.583C28.764 24.861 28.4307 25 28.042 25C27.6527 25 27.3193 24.861 27.042 24.583L20 17.583L12.917 24.667C12.667 24.9443 12.3543 25.076 11.979 25.062C11.6043 25.0487 11.278 24.903 11 24.625Z" />
</svg>
