<svg width="40" height="40" viewBox="0 0 40 40"  xmlns="http://www.w3.org/2000/svg">
<path d="M21.375 20C20.9863 20 20.66 19.868 20.396 19.604C20.132 19.34 20 19.0137 20 18.625V8.62499C20 8.23633 20.132 7.90299 20.396 7.62499C20.66 7.34699 20.9863 7.20799 21.375 7.20799C21.7917 7.20799 22.132 7.34699 22.396 7.62499C22.66 7.90299 22.792 8.23633 22.792 8.62499V15.292L33.75 4.29199C34.028 4.04199 34.3543 3.91699 34.729 3.91699C35.1043 3.91699 35.4307 4.04199 35.708 4.29199C35.958 4.56933 36.083 4.89566 36.083 5.27099C36.083 5.64566 35.958 5.97199 35.708 6.24999L24.708 17.208H31.375C31.7637 17.208 32.097 17.347 32.375 17.625C32.653 17.903 32.792 18.2363 32.792 18.625C32.792 19.0137 32.653 19.34 32.375 19.604C32.097 19.868 31.7637 20 31.375 20H21.375ZM4.29199 35.708C4.04199 35.4307 3.91699 35.1043 3.91699 34.729C3.91699 34.3543 4.04199 34.028 4.29199 33.75L15.292 22.792H8.62499C8.23633 22.792 7.90299 22.653 7.62499 22.375C7.34699 22.097 7.20799 21.7637 7.20799 21.375C7.20799 20.9863 7.34699 20.66 7.62499 20.396C7.90299 20.132 8.23633 20 8.62499 20H18.625C19.0137 20 19.34 20.132 19.604 20.396C19.868 20.66 20 20.9863 20 21.375V31.375C20 31.7637 19.868 32.097 19.604 32.375C19.34 32.653 19.0137 32.792 18.625 32.792C18.2083 32.792 17.868 32.653 17.604 32.375C17.34 32.097 17.208 31.7637 17.208 31.375V24.708L6.24999 35.708C5.97199 35.958 5.64566 36.083 5.27099 36.083C4.89566 36.083 4.56933 35.958 4.29199 35.708Z" />
</svg>
