<svg width="36" height="36" viewBox="0 0 36 36" fill="none" xmlns="http://www.w3.org/2000/svg">
	<path d="M26 9C22.409 9 19.73 7.352 18.011 4.095C16.385 7.314 13.993 9 11 9C10.448 9 10 8.552 10 8C10 7.448 10.448 7 11 7C13.729 7 15.765 5.043 17.051 1.184C17.188 0.775 17.569 0.5 18 0.5C18.431 0.5 18.812 0.775 18.949 1.184C20.271 5.151 22.512 7 26 7C26.553 7 27 7.448 27 8C27 8.552 26.553 9 26 9Z" fill="#292F33" />
	<path d="M12.1877 5.84831C16.9465 5.84972 16.7499 9.70628 16.7492 14.4658C16.7492 19.2246 16.9458 23.0826 12.1877 23.0833C7.42745 23.0833 3.56947 19.2254 3.57018 14.4658C3.57018 9.70558 7.42745 5.84831 12.1877 5.84831Z" fill="#FFAC33" />
	<path d="M13.7076 6.19269C15.9484 6.1934 17.7622 9.89652 17.7622 14.4658C17.7622 19.0352 15.9491 22.739 13.7069 22.7383C11.4668 22.7383 11.5009 19.0343 11.5002 14.4657C11.5016 9.89633 11.4675 6.19269 13.7076 6.19269Z" fill="#BE1931" />
	<path d="M23.7434 5.84796C18.9852 5.85008 19.1811 9.70594 19.1818 14.4655C19.1818 19.2243 18.9852 23.0823 23.7434 23.083C28.5029 23.0823 32.3609 19.2243 32.3609 14.4655C32.3616 9.70594 28.5043 5.84867 23.7434 5.84796Z" fill="#FFAC33" />
	<path d="M14.5 12C15.3284 12 16 11.3284 16 10.5C16 9.67157 15.3284 9 14.5 9C13.6716 9 13 9.67157 13 10.5C13 11.3284 13.6716 12 14.5 12Z" fill="#FFCC4D" />
	<path d="M22.2157 6.19269C19.9749 6.1934 18.1612 9.89652 18.1612 14.4658C18.1612 19.0352 19.9742 22.739 22.2164 22.7383C24.4566 22.7383 24.4224 19.0343 24.4231 14.4657C24.4217 9.89633 24.4559 6.19269 22.2157 6.19269Z" fill="#BE1931" />
	<path d="M12.6451 32.8775C10.6579 32.3733 9.91876 30.9316 10.2157 29.7693C10.5121 28.608 11.8505 27.6937 13.8358 28.199C14.6107 28.397 14.9947 28.1938 15.0264 28.077C15.0564 27.9569 14.8143 27.5943 14.0412 27.3973C12.0554 26.8928 11.3167 25.4502 11.6136 24.288C11.9088 23.1247 13.248 22.2132 15.2342 22.719C16.0086 22.9156 16.3941 22.712 16.4231 22.5937C16.4525 22.4768 16.2123 22.1129 15.4383 21.9154C14.9048 21.7795 14.579 21.2357 14.7155 20.7014C14.8538 20.1658 15.3969 19.8431 15.9327 19.9792C17.9171 20.4841 18.6581 21.9246 18.362 23.0896C18.0655 24.251 16.7272 25.163 14.7401 24.6589C13.9652 24.4609 13.5812 24.6641 13.5521 24.7825C13.5213 24.8998 13.7616 25.2637 14.5347 25.4606C16.5222 25.9661 17.261 27.4064 16.964 28.5709C16.6689 29.732 15.3306 30.644 13.3426 30.1394C12.57 29.9416 12.1844 30.1474 12.1546 30.263C12.1251 30.3821 12.365 30.7447 13.1384 30.943C13.6747 31.0782 13.9968 31.6222 13.8612 32.157C13.7248 32.6914 13.1798 33.0153 12.6451 32.8775Z" fill="#77B255" />
	<path d="M15.5085 19C16.3369 18.9953 17.0047 18.32 17.0001 17.4916C16.9954 16.6632 16.3201 15.9954 15.4917 16C14.6633 16.0047 13.9955 16.68 14.0001 17.5084C14.0048 18.3368 14.6801 19.0046 15.5085 19Z" fill="#5C913B" />
	<path d="M17 17C18.1046 17 19 16.1046 19 15C19 13.8954 18.1046 13 17 13C15.8954 13 15 13.8954 15 15C15 16.1046 15.8954 17 17 17Z" fill="#9266CC" />
	<path d="M21.5 12C22.3284 12 23 11.3284 23 10.5C23 9.67157 22.3284 9 21.5 9C20.6716 9 20 9.67157 20 10.5C20 11.3284 20.6716 12 21.5 12Z" fill="#5C913B" />
	<path d="M21 20C22.1046 20 23 19.1046 23 18C23 16.8954 22.1046 16 21 16C19.8954 16 19 16.8954 19 18C19 19.1046 19.8954 20 21 20Z" fill="#FFCC4D" />
	<path d="M17.1871 20.9855C17.2794 20.7475 17.4626 20.5447 17.7152 20.4323C18.5131 20.0803 19.2971 19.9763 19.9782 20.1339C20.6992 20.3007 21.2686 20.7549 21.5448 21.3794C22.0286 22.4754 21.5407 24.0203 19.6649 24.8493C18.9356 25.1722 18.7574 25.5695 18.8075 25.6803C18.8559 25.7921 19.2704 25.928 20.0002 25.606C20.798 25.2539 21.5821 25.15 22.2631 25.3075C22.9842 25.4744 23.5553 25.9276 23.8298 26.5531C24.3141 27.6499 23.8257 29.194 21.9521 30.0228C21.4205 30.2581 21.2159 30.5137 21.1427 30.6448C21.085 30.7509 21.08 30.8242 21.0935 30.8557C21.1431 30.9656 21.5542 31.1036 22.2856 30.7805C22.7911 30.558 23.3823 30.7859 23.6048 31.2914C23.8282 31.7963 23.6006 32.3862 23.0939 32.6106C21.2204 33.4394 19.7483 32.7616 19.2635 31.664C18.7792 30.5672 19.2676 29.0231 21.1434 28.1941C21.6755 27.9597 21.8779 27.7043 21.9511 27.5731C22.0102 27.4674 22.0152 27.3941 22.0008 27.3631C21.9524 27.2513 21.5396 27.1144 20.8081 27.4374C18.934 28.2654 17.4624 27.5885 16.9777 26.4908C16.4934 25.394 16.9813 23.8491 18.8564 23.0228C19.3879 22.7875 19.5921 22.5311 19.6653 22.3999C19.7235 22.2947 19.7285 22.2214 19.715 22.19C19.6648 22.0792 19.2521 21.9422 18.5223 22.2642C18.0174 22.4876 17.4257 22.2588 17.2031 21.7534C17.0929 21.4984 17.0952 21.2245 17.1871 20.9855Z" fill="#AA8DD8" />
</svg>
	