<svg width="36" height="36" viewBox="0 0 36 36" fill="none" xmlns="http://www.w3.org/2000/svg">
	<g clip-path="url(#clip0_2808_38419)">
		<path d="M26 9C22.409 9 19.73 7.352 18.011 4.095C16.385 7.314 13.993 9 11 9C10.448 9 10 8.552 10 8C10 7.448 10.448 7 11 7C13.729 7 15.765 5.043 17.051 1.184C17.188 0.775 17.569 0.5 18 0.5C18.431 0.5 18.812 0.775 18.949 1.184C20.271 5.151 22.512 7 26 7C26.553 7 27 7.448 27 8C27 8.552 26.553 9 26 9Z" fill="#292F33" />
		<path d="M14.711 9.65399C18.075 13.02 15.209 15.608 11.843 18.973C8.47801 22.338 5.88901 25.205 2.52401 21.841C-0.841988 18.475 -0.841988 13.019 2.52401 9.65399C5.89001 6.28799 11.345 6.28799 14.711 9.65399Z" fill="#FFAC33" />
		<path d="M15.5421 10.972C17.1261 12.557 15.7901 16.458 12.5591 19.689C9.32808 22.92 5.42708 24.257 3.84208 22.671C2.25808 21.087 3.59408 17.185 6.82408 13.954C10.0561 10.724 13.9581 9.38799 15.5421 10.972Z" fill="#BE1931" />
		<path d="M21.289 9.65399C17.926 13.02 20.791 15.608 24.157 18.973C27.522 22.338 30.111 25.205 33.476 21.841C36.841 18.475 36.841 13.019 33.476 9.65399C30.111 6.28799 24.656 6.28799 21.289 9.65399Z" fill="#FFAC33" />
		<path d="M20.4589 10.972C18.8739 12.557 20.2099 16.458 23.4409 19.689C26.6709 22.92 30.5739 24.257 32.1579 22.671C33.7419 21.087 32.4059 17.185 29.1749 13.954C25.9449 10.724 22.0419 9.38799 20.4589 10.972Z" fill="#BE1931" />
		<path d="M22.4099 18.221C22.6089 18.061 22.8689 17.977 23.1439 18.006C24.0109 18.1 24.7419 18.402 25.2529 18.879C25.7939 19.384 26.0599 20.062 25.9869 20.741C25.8579 21.932 24.6629 23.026 22.6239 22.806C21.8309 22.721 21.4779 22.976 21.4659 23.097C21.4519 23.218 21.7429 23.543 22.5359 23.629C23.4029 23.723 24.1339 24.025 24.6449 24.502C25.1859 25.007 25.4539 25.685 25.3789 26.364C25.2499 27.556 24.0549 28.649 22.0179 28.43C21.4399 28.368 21.1349 28.487 21.0059 28.564C20.9029 28.627 20.8619 28.688 20.8579 28.722C20.8459 28.842 21.1329 29.167 21.9279 29.253C22.4769 29.313 22.8749 29.806 22.8149 30.355C22.7559 30.904 22.2639 31.301 21.7129 31.242C19.6759 31.023 18.7399 29.7 18.8689 28.507C18.9979 27.315 20.1929 26.222 22.2319 26.442C22.8099 26.505 23.1129 26.385 23.2419 26.308C23.3459 26.246 23.3869 26.185 23.3899 26.151C23.4039 26.03 23.1149 25.705 22.3199 25.619C20.2829 25.399 19.3469 24.077 19.4759 22.884C19.6049 21.692 20.7999 20.598 22.8369 20.82C23.4149 20.882 23.7199 20.762 23.8489 20.685C23.9519 20.623 23.9929 20.562 23.9969 20.528C24.0089 20.407 23.7199 20.082 22.9269 19.996C22.3779 19.937 21.9799 19.443 22.0399 18.894C22.0719 18.618 22.2109 18.382 22.4099 18.221Z" fill="#AA8DD8" />
		<path d="M15.2659 35.828C13.2929 36.385 11.9319 35.506 11.6079 34.351C11.2839 33.197 11.9859 31.736 13.9579 31.181C14.7279 30.965 14.9589 30.597 14.9279 30.48C14.8939 30.361 14.5029 30.168 13.7349 30.384C11.7629 30.94 10.4019 30.06 10.0779 28.905C9.75193 27.75 10.4559 26.291 12.4289 25.736C13.1979 25.519 13.4299 25.15 13.3959 25.033C13.3629 24.917 12.9729 24.722 12.2039 24.938C11.6739 25.087 11.1199 24.779 10.9709 24.248C10.8229 23.715 11.1319 23.164 11.6639 23.014C13.6349 22.459 14.9969 23.336 15.3229 24.493C15.6469 25.647 14.9439 27.106 12.9709 27.663C12.2009 27.879 11.9699 28.247 12.0039 28.364C12.0359 28.481 12.4259 28.676 13.1939 28.46C15.1679 27.904 16.5279 28.782 16.8529 29.939C17.1779 31.092 16.4749 32.551 14.5009 33.108C13.7329 33.323 13.5019 33.694 13.5339 33.809C13.5679 33.927 13.9569 34.121 14.7259 33.906C15.2579 33.755 15.8089 34.065 15.9589 34.596C16.1079 35.127 15.7979 35.68 15.2659 35.828Z" fill="#77B255" />
		<path d="M2.5 29C3.32843 29 4 28.3284 4 27.5C4 26.6716 3.32843 26 2.5 26C1.67157 26 1 26.6716 1 27.5C1 28.3284 1.67157 29 2.5 29Z" fill="#5C913B" />
		<path d="M7 33C8.10457 33 9 32.1046 9 31C9 29.8954 8.10457 29 7 29C5.89543 29 5 29.8954 5 31C5 32.1046 5.89543 33 7 33Z" fill="#9266CC" />
		<path d="M30 29C31.1046 29 32 28.1046 32 27C32 25.8954 31.1046 25 30 25C28.8954 25 28 25.8954 28 27C28 28.1046 28.8954 29 30 29Z" fill="#9266CC" />
		<path d="M25.5 33C26.3284 33 27 32.3284 27 31.5C27 30.6716 26.3284 30 25.5 30C24.6716 30 24 30.6716 24 31.5C24 32.3284 24.6716 33 25.5 33Z" fill="#5C913B" />
		<path d="M17.5 21C18.3284 21 19 20.3284 19 19.5C19 18.6716 18.3284 18 17.5 18C16.6716 18 16 18.6716 16 19.5C16 20.3284 16.6716 21 17.5 21Z" fill="#5C913B" />
		<path d="M7 25C8.10457 25 9 24.1046 9 23C9 21.8954 8.10457 21 7 21C5.89543 21 5 21.8954 5 23C5 24.1046 5.89543 25 7 25Z" fill="#FFCC4D" />
		<path d="M27.5 18C28.3284 18 29 17.3284 29 16.5C29 15.6716 28.3284 15 27.5 15C26.6716 15 26 15.6716 26 16.5C26 17.3284 26.6716 18 27.5 18Z" fill="#FFCC4D" />
		<path d="M12.5 16C13.3284 16 14 15.3284 14 14.5C14 13.6716 13.3284 13 12.5 13C11.6716 13 11 13.6716 11 14.5C11 15.3284 11.6716 16 12.5 16Z" fill="#FFCC4D" />
	</g>
	<defs>
		<clipPath id="clip0_2808_38419">
			<rect width="36" height="36" fill="white" />
		</clipPath>
	</defs>
</svg>
	