<svg width="40" height="40" viewBox="0 0 40 40" xmlns="http://www.w3.org/2000/svg">
<path d="M6.85433 8.75C6.85433 7.36929 7.97362 6.25 9.35433 6.25H17.6877C19.0683 6.25 20.1875 7.36913 20.1877 8.7497C19.1756 9.50987 18.521 10.7202 18.521 12.0833V26.1077C18.2603 26.1999 17.9799 26.25 17.6877 26.25H9.35433C8.49138 26.25 7.73056 25.8128 7.28129 25.1478C7.26314 25.1209 7.2455 25.0937 7.22838 25.0661C6.99125 24.6838 6.85433 24.2329 6.85433 23.75V8.75Z" />
<path d="M22.6877 29.5833C21.3069 29.5833 20.1877 28.464 20.1877 27.0833V12.0833C20.1877 10.7026 21.3069 9.58333 22.6877 9.58333H31.021C32.4017 9.58333 33.521 10.7026 33.521 12.0833V27.0833C33.521 28.464 32.4017 29.5833 31.021 29.5833H22.6877Z" />
<path d="M5.5781 25.5134C2.73588 26.3856 1.021 27.5155 1.021 28.75C1.021 31.5114 9.60221 33.75 20.1877 33.75C30.7731 33.75 39.3543 31.5114 39.3543 28.75C39.3543 27.5731 37.7957 26.4912 35.1877 25.6371V27.0833C35.1877 29.3845 33.3222 31.25 31.021 31.25H22.6877C20.6377 31.25 18.9335 29.7696 18.5858 27.8196C18.2966 27.8832 17.996 27.9167 17.6877 27.9167H9.35433C7.68341 27.9167 6.2422 26.9331 5.5781 25.5134Z" />
</svg>
