<svg width="40" height="40" viewBox="0 0 40 40" xmlns="http://www.w3.org/2000/svg">
<mask id="mask0_1781_3797" style="mask-type:alpha" maskUnits="userSpaceOnUse" x="0" y="0" width="40" height="40">
<rect width="40" height="40" />
</mask>
<g mask="url(#mask0_1781_3797)">
<path d="M16.208 27.167C16.6247 27.167 16.965 27.035 17.229 26.771C17.493 26.507 17.625 26.1807 17.625 25.792V21.833H21.542C21.9587 21.833 22.2987 21.7013 22.562 21.438C22.826 21.174 22.958 20.8473 22.958 20.458C22.958 20.0413 22.826 19.7013 22.562 19.438C22.2987 19.174 21.9587 19.042 21.542 19.042H17.625V15.125C17.625 14.7083 17.493 14.368 17.229 14.104C16.965 13.84 16.6247 13.708 16.208 13.708C15.8193 13.708 15.493 13.84 15.229 14.104C14.965 14.368 14.833 14.7083 14.833 15.125V19.042H10.875C10.4863 19.042 10.16 19.174 9.89601 19.438C9.63201 19.7013 9.50001 20.0413 9.50001 20.458C9.50001 20.8473 9.63201 21.174 9.89601 21.438C10.16 21.7013 10.4863 21.833 10.875 21.833H14.833V25.792C14.833 26.1807 14.965 26.507 15.229 26.771C15.493 27.035 15.8193 27.167 16.208 27.167ZM5.62501 33.833C4.87501 33.833 4.22234 33.5553 3.66701 33C3.11101 32.4447 2.83301 31.792 2.83301 31.042V9.95799C2.83301 9.20799 3.11101 8.55533 3.66701 7.99999C4.22234 7.44466 4.87501 7.16699 5.62501 7.16699H26.708C27.458 7.16699 28.111 7.44466 28.667 7.99999C29.2223 8.55533 29.5 9.20799 29.5 9.95799V18.417L34.958 12.958C35.208 12.708 35.472 12.6457 35.75 12.771C36.028 12.8957 36.167 13.111 36.167 13.417V27.583C36.167 27.889 36.028 28.1043 35.75 28.229C35.472 28.3543 35.208 28.292 34.958 28.042L29.5 22.583V31.042C29.5 31.792 29.2223 32.4447 28.667 33C28.111 33.5553 27.458 33.833 26.708 33.833H5.62501Z" />
</g>
</svg>
