<svg width="40" height="40" viewBox="0 0 40 40" xmlns="http://www.w3.org/2000/svg">
<mask id="mask0_933_3212" style="mask-type:alpha" maskUnits="userSpaceOnUse" x="0" y="0" width="40" height="40">
<rect width="40" height="40" />
</mask>
<g mask="url(#mask0_933_3212)">
<path d="M11.125 35C10.375 35 9.72933 34.7223 9.18799 34.167C8.64599 33.611 8.37499 32.958 8.37499 32.208V9.167H8.04199C7.65266 9.167 7.32599 9.035 7.06199 8.771C6.79866 8.507 6.66699 8.18067 6.66699 7.792C6.66699 7.37533 6.79866 7.035 7.06199 6.771C7.32599 6.507 7.65266 6.375 8.04199 6.375H14.667C14.667 5.98633 14.7987 5.66 15.062 5.396C15.326 5.132 15.6527 5 16.042 5H23.958C24.3473 5 24.674 5.132 24.938 5.396C25.2013 5.66 25.333 5.98633 25.333 6.375H31.958C32.3473 6.375 32.674 6.514 32.938 6.792C33.2013 7.06933 33.333 7.40267 33.333 7.792C33.333 8.18067 33.2013 8.507 32.938 8.771C32.674 9.035 32.3473 9.167 31.958 9.167H31.625V32.208C31.625 32.958 31.354 33.611 30.812 34.167C30.2707 34.7223 29.625 35 28.875 35H11.125ZM15.208 27.333C15.208 27.7223 15.34 28.0487 15.604 28.312C15.868 28.576 16.1943 28.708 16.583 28.708C16.9723 28.708 17.2987 28.576 17.562 28.312C17.826 28.0487 17.958 27.7223 17.958 27.333V14.042C17.958 13.6253 17.826 13.285 17.562 13.021C17.2987 12.757 16.9723 12.625 16.583 12.625C16.1943 12.625 15.868 12.757 15.604 13.021C15.34 13.285 15.208 13.6253 15.208 14.042V27.333ZM22.042 27.333C22.042 27.7223 22.174 28.0487 22.438 28.312C22.7013 28.576 23.0277 28.708 23.417 28.708C23.8057 28.708 24.132 28.576 24.396 28.312C24.66 28.0487 24.792 27.7223 24.792 27.333V14.042C24.792 13.6253 24.66 13.285 24.396 13.021C24.132 12.757 23.8057 12.625 23.417 12.625C23.0277 12.625 22.7013 12.757 22.438 13.021C22.174 13.285 22.042 13.6253 22.042 14.042V27.333Z" />
</g>
</svg>
