<svg width="40" height="40" viewBox="0 0 40 40" xmlns="http://www.w3.org/2000/svg">
<mask id="mask0_1263_2438" style="mask-type:alpha" maskUnits="userSpaceOnUse" x="0" y="0" width="40" height="40">
<rect width="40" height="40"/>
</mask>
<g mask="url(#mask0_1263_2438)">
<path d="M20 36.083C19.8053 36.083 19.6317 36.0553 19.479 36C19.3263 35.9447 19.1807 35.8473 19.042 35.708L9.29199 25.958C9.04199 25.708 8.91699 25.3957 8.91699 25.021C8.91699 24.6457 9.04199 24.3193 9.29199 24.042C9.56933 23.764 9.89566 23.625 10.271 23.625C10.6457 23.625 10.972 23.764 11.25 24.042L18.625 31.375V4.70801C18.625 4.31934 18.757 3.99301 19.021 3.72901C19.285 3.46501 19.6113 3.33301 20 3.33301C20.3887 3.33301 20.715 3.46501 20.979 3.72901C21.243 3.99301 21.375 4.31934 21.375 4.70801V31.375L28.75 24.042C29 23.792 29.3193 23.66 29.708 23.646C30.0973 23.632 30.4307 23.764 30.708 24.042C30.958 24.292 31.083 24.6113 31.083 25C31.083 25.3887 30.958 25.708 30.708 25.958L20.958 35.708C20.8193 35.8473 20.6737 35.9447 20.521 36C20.3683 36.0553 20.1947 36.083 20 36.083Z"/>
</g>
</svg>
