<svg width="14" height="14" viewBox="0 0 14 14" fill="none" xmlns="http://www.w3.org/2000/svg">
  <path d="M7.00016 0.333313C3.32016 0.333313 0.333496 3.31998 0.333496 6.99998C0.333496 10.68 3.32016 13.6666 7.00016 13.6666C10.6802 13.6666 13.6668 10.68 13.6668 6.99998C13.6668 3.31998 10.6802 0.333313 7.00016 0.333313ZM7.00016 7.66665C6.6335 7.66665 6.3335 7.36665 6.3335 6.99998V4.33331C6.3335 3.96665 6.6335 3.66665 7.00016 3.66665C7.36683 3.66665 7.66683 3.96665 7.66683 4.33331V6.99998C7.66683 7.36665 7.36683 7.66665 7.00016 7.66665ZM7.66683 10.3333H6.3335V8.99998H7.66683V10.3333Z" fill="#EB0400" />
</svg>
  