<svg width="40" height="40" viewBox="0 0 40 40" xmlns="http://www.w3.org/2000/svg">
<path d="M6.375 35C5.98633 35 5.66 34.868 5.396 34.604C5.132 34.34 5 34.0137 5 33.625V23.625C5 23.2363 5.132 22.903 5.396 22.625C5.66 22.347 5.98633 22.208 6.375 22.208C6.79167 22.208 7.132 22.347 7.396 22.625C7.66 22.903 7.792 23.2363 7.792 23.625V30.292L30.292 7.792H23.625C23.2363 7.792 22.903 7.653 22.625 7.375C22.347 7.097 22.208 6.76367 22.208 6.375C22.208 5.98633 22.347 5.66 22.625 5.396C22.903 5.132 23.2363 5 23.625 5H33.625C34.0137 5 34.34 5.132 34.604 5.396C34.868 5.66 35 5.98633 35 6.375V16.375C35 16.7637 34.868 17.097 34.604 17.375C34.34 17.653 34.0137 17.792 33.625 17.792C33.2083 17.792 32.868 17.653 32.604 17.375C32.34 17.097 32.208 16.7637 32.208 16.375V9.708L9.708 32.208H16.375C16.7637 32.208 17.097 32.347 17.375 32.625C17.653 32.903 17.792 33.2363 17.792 33.625C17.792 34.0137 17.653 34.34 17.375 34.604C17.097 34.868 16.7637 35 16.375 35H6.375Z" />
</svg>
