<svg width="18" height="12" viewBox="0 0 18 12" fill="none" xmlns="http://www.w3.org/2000/svg">
  <path d="M9 0C5.25 0 2.0475 2.3325 0.75 5.625C2.0475 8.9175 5.25 11.25 9 11.25C12.75 11.25 15.9525 8.9175 17.25 5.625C15.9525 2.3325 12.75 0 9 0ZM9 9.375C6.93 9.375 5.25 7.695 5.25 5.625C5.25 3.555 6.93 1.875 9 1.875C11.07 1.875 12.75 3.555 12.75 5.625C12.75 7.695 11.07 9.375 9 9.375ZM9 3.375C7.755 3.375 6.75 4.38 6.75 5.625C6.75 6.87 7.755 7.875 9 7.875C10.245 7.875 11.25 6.87 11.25 5.625C11.25 4.38 10.245 3.375 9 3.375Z" fill="white" />
</svg>