<svg width="18" height="14" viewBox="0 0 18 14" fill="none" xmlns="http://www.w3.org/2000/svg">
  <path d="M9 2.87501C11.07 2.87501 12.75 4.55501 12.75 6.62501C12.75 7.00751 12.675 7.37501 12.57 7.72001L14.865 10.015C15.9075 9.09251 16.7325 7.93751 17.25 6.61751C15.9525 3.33251 12.75 1.00001 9 1.00001C8.0475 1.00001 7.1325 1.15001 6.27 1.42751L7.8975 3.05501C8.25 2.95001 8.6175 2.87501 9 2.87501ZM2.0325 0.37001C1.74 0.66251 1.74 1.13501 2.0325 1.42751L3.51 2.90501C2.295 3.87251 1.3275 5.14751 0.75 6.62501C2.0475 9.91751 5.25 12.25 9 12.25C10.14 12.25 11.2275 12.025 12.2325 11.635L14.2725 13.675C14.565 13.9675 15.0375 13.9675 15.33 13.675C15.6225 13.3825 15.6225 12.91 15.33 12.6175L3.0975 0.37001C2.805 0.0775098 2.325 0.0775098 2.0325 0.37001ZM9 10.375C6.93 10.375 5.25 8.69501 5.25 6.62501C5.25 6.04751 5.385 5.50001 5.6175 5.02001L6.795 6.19751C6.7725 6.33251 6.75 6.47501 6.75 6.62501C6.75 7.87001 7.755 8.87501 9 8.87501C9.15 8.87501 9.285 8.85251 9.4275 8.82251L10.605 10C10.1175 10.24 9.5775 10.375 9 10.375ZM11.2275 6.37751C11.115 5.32751 10.29 4.51001 9.2475 4.39751L11.2275 6.37751Z" fill="white" />
</svg>