<!-- https://fonts.google.com/icons?selected=Material%20Icons%3Afact_check%3A -->
<svg width="40" height="40" viewBox="0 0 40 40" fill="none" xmlns="http://www.w3.org/2000/svg">
	<path d="M10 14.708H15C15.3887 14.708 15.715 14.5763 15.979 14.313C16.243 14.049 16.375 13.7223 16.375 13.333C16.375 12.9443 16.243 12.618 15.979 12.354C15.715 12.09 15.3887 11.958 15 11.958H10C9.61133 11.958 9.285 12.09 9.021 12.354C8.757 12.618 8.625 12.9443 8.625 13.333C8.625 13.7223 8.757 14.049 9.021 14.313C9.285 14.5763 9.61133 14.708 10 14.708ZM10 21.375H15C15.3887 21.375 15.715 21.243 15.979 20.979C16.243 20.715 16.375 20.3887 16.375 20C16.375 19.6113 16.243 19.285 15.979 19.021C15.715 18.757 15.3887 18.625 15 18.625H10C9.61133 18.625 9.285 18.757 9.021 19.021C8.757 19.285 8.625 19.6113 8.625 20C8.625 20.3887 8.757 20.715 9.021 20.979C9.285 21.243 9.61133 21.375 10 21.375ZM10 28.042H15C15.3887 28.042 15.715 27.91 15.979 27.646C16.243 27.382 16.375 27.0557 16.375 26.667C16.375 26.2777 16.243 25.9513 15.979 25.688C15.715 25.424 15.3887 25.292 15 25.292H10C9.61133 25.292 9.285 25.424 9.021 25.688C8.757 25.9513 8.625 26.2777 8.625 26.667C8.625 27.0557 8.757 27.382 9.021 27.646C9.285 27.91 9.61133 28.042 10 28.042ZM24.25 24.167C24.3887 24.167 24.5277 24.139 24.667 24.083C24.8057 24.0277 24.9307 23.9443 25.042 23.833L31.125 17.708C31.4303 17.4027 31.583 17.0763 31.583 16.729C31.583 16.3817 31.4303 16.0693 31.125 15.792C30.847 15.514 30.5207 15.375 30.146 15.375C29.7707 15.375 29.4443 15.514 29.167 15.792L24.25 20.667L22.833 19.292C22.5557 19.014 22.2363 18.882 21.875 18.896C21.5137 18.91 21.1803 19.0557 20.875 19.333C20.625 19.611 20.5 19.9307 20.5 20.292C20.5 20.6527 20.639 20.972 20.917 21.25L23.458 23.833C23.5693 23.9443 23.6943 24.0277 23.833 24.083C23.9723 24.139 24.1113 24.167 24.25 24.167ZM5.875 35C5.125 35 4.47933 34.7223 3.938 34.167C3.396 33.611 3.125 32.958 3.125 32.208V7.792C3.125 7.042 3.396 6.389 3.938 5.833C4.47933 5.27767 5.125 5 5.875 5H34.125C34.875 5 35.5207 5.27767 36.062 5.833C36.604 6.389 36.875 7.042 36.875 7.792V32.208C36.875 32.958 36.604 33.611 36.062 34.167C35.5207 34.7223 34.875 35 34.125 35H5.875Z" />
</svg>
	