<svg xmlns="http://www.w3.org/2000/svg" width="40" height="40" viewBox="0 0 40 40" fill="white">
<path d="M6.29199 24.542C5.01399 24.542 3.92366 24.0907 3.02099 23.188C2.11833 22.2847 1.66699 21.1943 1.66699 19.917C1.66699 18.639 2.11833 17.5487 3.02099 16.646C3.92366 15.7433 5.01399 15.292 6.29199 15.292V10.75C6.29199 10 6.56966 9.34734 7.12499 8.79201C7.68033 8.23601 8.33299 7.95801 9.08299 7.95801H15.375C15.375 6.68067 15.8263 5.59067 16.729 4.68801C17.6317 3.78467 18.722 3.33301 20 3.33301C21.278 3.33301 22.3683 3.78467 23.271 4.68801C24.1737 5.59067 24.625 6.68067 24.625 7.95801H30.917C31.667 7.95801 32.3197 8.23601 32.875 8.79201C33.4303 9.34734 33.708 10 33.708 10.75V15.292C34.986 15.292 36.0763 15.7433 36.979 16.646C37.8817 17.5487 38.333 18.639 38.333 19.917C38.333 21.1943 37.8817 22.2847 36.979 23.188C36.0763 24.0907 34.986 24.542 33.708 24.542V32.208C33.708 32.958 33.4303 33.611 32.875 34.167C32.3197 34.7223 31.667 35 30.917 35H9.08299C8.33299 35 7.68033 34.7223 7.12499 34.167C6.56966 33.611 6.29199 32.958 6.29199 32.208V24.542ZM14.542 20.667C15.0693 20.667 15.5207 20.4793 15.896 20.104C16.2707 19.7293 16.458 19.264 16.458 18.708C16.458 18.1807 16.2707 17.7293 15.896 17.354C15.5207 16.9793 15.0693 16.792 14.542 16.792C13.986 16.792 13.5207 16.9793 13.146 17.354C12.7707 17.7293 12.583 18.1807 12.583 18.708C12.583 19.264 12.7707 19.7293 13.146 20.104C13.5207 20.4793 13.986 20.667 14.542 20.667ZM25.458 20.667C26.014 20.667 26.4793 20.4793 26.854 20.104C27.2293 19.7293 27.417 19.264 27.417 18.708C27.417 18.1807 27.2293 17.7293 26.854 17.354C26.4793 16.9793 26.014 16.792 25.458 16.792C24.9307 16.792 24.4793 16.9793 24.104 17.354C23.7293 17.7293 23.542 18.1807 23.542 18.708C23.542 19.264 23.7293 19.7293 24.104 20.104C24.4793 20.4793 24.9307 20.667 25.458 20.667ZM14.5 28.208H25.5C25.8887 28.208 26.215 28.0693 26.479 27.792C26.743 27.514 26.875 27.1807 26.875 26.792C26.875 26.4027 26.743 26.076 26.479 25.812C26.215 25.5487 25.8887 25.417 25.5 25.417H14.5C14.1113 25.417 13.785 25.5487 13.521 25.812C13.257 26.076 13.125 26.4027 13.125 26.792C13.125 27.2087 13.257 27.5487 13.521 27.812C13.785 28.076 14.1113 28.208 14.5 28.208Z" />
</svg>
