<!-- https://fonts.google.com/icons?selected=Material%20Icons%3Afavorite%3A -->
<svg width="32" height="33" viewBox="0 0 32 33" fill="none" xmlns="http://www.w3.org/2000/svg">
<path d="M14.3 27.793L12.3336 25.9594C9.71119 23.5594 7.40559 21.2207 5.41679 18.9434C3.42799 16.6655 2.43359 14.2375 2.43359 11.6594C2.43359 9.57084 3.13359 7.82097 4.53359 6.40977C5.93359 4.99857 7.67786 4.29297 9.76639 4.29297C10.8997 4.29297 12.0109 4.54844 13.1 5.05937C14.1891 5.57084 15.1557 6.37084 16 7.45937C16.9109 6.37084 17.8832 5.57084 18.9168 5.05937C19.9499 4.54844 21.0443 4.29297 22.2 4.29297C24.2891 4.29297 26.0389 4.99857 27.4496 6.40977C28.8608 7.82097 29.5664 9.57084 29.5664 11.6594C29.5664 14.2375 28.572 16.6655 26.5832 18.9434C24.5944 21.2207 22.2888 23.5706 19.6664 25.993L17.7 27.793C17.2333 28.2372 16.6667 28.4594 16 28.4594C15.3333 28.4594 14.7667 28.2372 14.3 27.793Z" />
</svg>
