<!-- https://fonts.google.com/icons?selected=Material%20Icons%20Round%3Asubscriptions%3A -->
<svg width="33" height="32" viewBox="0 0 33 32" xmlns="http://www.w3.org/2000/svg">
<path d="M10.8779 4.6664C10.5665 4.6664 10.3051 4.56107 10.0939 4.3504C9.88326 4.1392 9.77793 3.86693 9.77793 3.5336C9.77793 3.22213 9.88326 2.96107 10.0939 2.7504C10.3051 2.5392 10.5665 2.4336 10.8779 2.4336H22.0107C22.3222 2.4336 22.5835 2.5392 22.7947 2.7504C23.0054 2.96107 23.1107 3.22213 23.1107 3.5336C23.1107 3.86693 23.0054 4.1392 22.7947 4.3504C22.5835 4.56107 22.3222 4.6664 22.0107 4.6664H10.8779ZM6.64433 8.6664C6.3334 8.6664 6.07233 8.56107 5.86113 8.3504C5.64993 8.1392 5.54433 7.86694 5.54433 7.5336C5.54433 7.22214 5.64993 6.96107 5.86113 6.7504C6.07233 6.5392 6.3334 6.4336 6.64433 6.4336H26.2443C26.5553 6.4336 26.8163 6.5392 27.0275 6.7504C27.2387 6.96107 27.3443 7.22214 27.3443 7.5336C27.3443 7.86694 27.2387 8.1392 27.0275 8.3504C26.8163 8.56107 26.5553 8.6664 26.2443 8.6664H6.64433ZM5.34433 29.5664C4.67766 29.5664 4.0998 29.3221 3.61073 28.8336C3.1222 28.3445 2.87793 27.7667 2.87793 27.1V12.9C2.87793 12.2333 3.1222 11.6555 3.61073 11.1664C4.0998 10.6779 4.67766 10.4336 5.34433 10.4336H27.5443C28.211 10.4336 28.7889 10.6779 29.2779 11.1664C29.7665 11.6555 30.0107 12.2333 30.0107 12.9V27.1C30.0107 27.7667 29.7665 28.3445 29.2779 28.8336C28.7889 29.3221 28.211 29.5664 27.5443 29.5664H5.34433ZM15.6779 24.0336L20.2443 20.9664C20.6001 20.7445 20.7779 20.4224 20.7779 20C20.7779 19.5776 20.6001 19.2555 20.2443 19.0336L15.6779 15.9664C15.2779 15.6997 14.8723 15.6776 14.4611 15.9C14.0499 16.1224 13.8443 16.4669 13.8443 16.9336V23.0664C13.8443 23.5331 14.0499 23.8832 14.4611 24.1168C14.8723 24.3499 15.2779 24.3221 15.6779 24.0336Z" />
</svg>
