<svg width="40" height="40" viewBox="0 0 40 40"  xmlns="http://www.w3.org/2000/svg">
<path fill-rule="evenodd" clip-rule="evenodd" d="M15.75 12.25C15.75 11.4216 16.4216 10.75 17.25 10.75L35.25 10.75C36.0784 10.75 36.75 11.4216 36.75 12.25C36.75 13.0784 36.0784 13.75 35.25 13.75L17.25 13.75C16.4216 13.75 15.75 13.0784 15.75 12.25Z"/>
<path fill-rule="evenodd" clip-rule="evenodd" d="M3.25 12.25C3.25 11.4216 3.92157 10.75 4.75 10.75H8.5C9.32843 10.75 10 11.4216 10 12.25C10 13.0784 9.32843 13.75 8.5 13.75H4.75C3.92157 13.75 3.25 13.0784 3.25 12.25Z"/>
<path fill-rule="evenodd" clip-rule="evenodd" d="M12.75 15C14.2688 15 15.5 13.7688 15.5 12.25C15.5 10.7312 14.2688 9.5 12.75 9.5C11.2312 9.5 10 10.7312 10 12.25C10 13.7688 11.2312 15 12.75 15ZM12.75 18C15.9256 18 18.5 15.4256 18.5 12.25C18.5 9.07436 15.9256 6.5 12.75 6.5C9.57436 6.5 7 9.07436 7 12.25C7 15.4256 9.57436 18 12.75 18Z"/>
<path fill-rule="evenodd" clip-rule="evenodd" d="M24.25 27.75C24.25 28.5784 23.5784 29.25 22.75 29.25L4.75 29.25C3.92157 29.25 3.25 28.5784 3.25 27.75C3.25 26.9216 3.92157 26.25 4.75 26.25L22.75 26.25C23.5784 26.25 24.25 26.9216 24.25 27.75Z"/>
<path fill-rule="evenodd" clip-rule="evenodd" d="M36.75 27.75C36.75 28.5784 36.0784 29.25 35.25 29.25H31.5C30.6716 29.25 30 28.5784 30 27.75C30 26.9216 30.6716 26.25 31.5 26.25H35.25C36.0784 26.25 36.75 26.9216 36.75 27.75Z"/>
<path fill-rule="evenodd" clip-rule="evenodd" d="M27.25 25C25.7312 25 24.5 26.2312 24.5 27.75C24.5 29.2688 25.7312 30.5 27.25 30.5C28.7688 30.5 30 29.2688 30 27.75C30 26.2312 28.7688 25 27.25 25ZM27.25 22C24.0744 22 21.5 24.5744 21.5 27.75C21.5 30.9256 24.0744 33.5 27.25 33.5C30.4256 33.5 33 30.9256 33 27.75C33 24.5744 30.4256 22 27.25 22Z"/>
</svg>
