<!-- https://fonts.google.com/icons?selected=Material%20Symbols%20Outlined%3Afullscreen%3AFILL%400%3Bwght%40400%3BGRAD%400%3Bopsz%4048 -->
<svg width="40" height="40" viewBox="0 0 40 40" xmlns="http://www.w3.org/2000/svg">
	<path d="M7.7 34.7001C7.23333 34.7001 6.83333 34.5335 6.5 34.2001C6.16667 33.8668 6 33.4668 6 33.0001L6 26.2001C6 25.7335 6.16667 25.3335 6.5 25.0001C6.83333 24.6668 7.25 24.5001 7.75 24.5001C8.21667 24.5001 8.60833 24.6668 8.925 25.0001C9.24167 25.3335 9.4 25.7335 9.4 26.2001L9.4 31.3001L14.5 31.3001C14.9667 31.3001 15.3667 31.4585 15.7 31.7751C16.0333 32.0918 16.2 32.5001 16.2 33.0001C16.2 33.4668 16.0333 33.8668 15.7 34.2001C15.3667 34.5335 14.9667 34.7001 14.5 34.7001L7.7 34.7001ZM7.7 16.2001C7.23333 16.2001 6.83333 16.0335 6.5 15.7001C6.16667 15.3668 6 14.9668 6 14.5001L6 7.70012C6 7.23346 6.16667 6.83346 6.5 6.50012C6.83333 6.16679 7.23333 6.00012 7.7 6.00012L14.5 6.00012C14.9667 6.00012 15.3667 6.16679 15.7 6.50012C16.0333 6.83346 16.2 7.25012 16.2 7.75012C16.2 8.21679 16.0333 8.60846 15.7 8.92512C15.3667 9.24179 14.9667 9.40012 14.5 9.40012L9.4 9.40012L9.4 14.5001C9.4 14.9668 9.24167 15.3668 8.925 15.7001C8.60833 16.0335 8.2 16.2001 7.7 16.2001ZM26.2 34.7001C25.7333 34.7001 25.3333 34.5335 25 34.2001C24.6667 33.8668 24.5 33.4501 24.5 32.9501C24.5 32.4835 24.6667 32.0918 25 31.7751C25.3333 31.4585 25.7333 31.3001 26.2 31.3001L31.3 31.3001L31.3 26.2001C31.3 25.7335 31.4583 25.3335 31.775 25.0001C32.0917 24.6668 32.5 24.5001 33 24.5001C33.4667 24.5001 33.8667 24.6668 34.2 25.0001C34.5333 25.3335 34.7 25.7335 34.7 26.2001L34.7 33.0001C34.7 33.4668 34.5333 33.8668 34.2 34.2001C33.8667 34.5335 33.4667 34.7001 33 34.7001L26.2 34.7001ZM32.95 16.2001C32.4833 16.2001 32.0917 16.0335 31.775 15.7001C31.4583 15.3668 31.3 14.9668 31.3 14.5001L31.3 9.40012L26.2 9.40012C25.7333 9.40012 25.3333 9.24179 25 8.92512C24.6667 8.60846 24.5 8.20012 24.5 7.70012C24.5 7.23346 24.6667 6.83346 25 6.50012C25.3333 6.16679 25.7333 6.00012 26.2 6.00012L33 6.00012C33.4667 6.00012 33.8667 6.16679 34.2 6.50012C34.5333 6.83346 34.7 7.23346 34.7 7.70012L34.7 14.5001C34.7 14.9668 34.5333 15.3668 34.2 15.7001C33.8667 16.0335 33.45 16.2001 32.95 16.2001Z"  />
</svg>
	