<svg width="28" height="28" viewBox="0 0 28 28" fill="none" xmlns="http://www.w3.org/2000/svg">
<path d="M2.37377 27.3405C1.88837 27.3405 1.47881 27.1736 1.1451 26.8399C0.811387 26.5062 0.644531 26.0967 0.644531 25.6113V19.4679C0.644531 19.0128 0.818972 18.6109 1.16785 18.262C1.51673 17.9131 1.93387 17.7387 2.41928 17.7387C2.90468 17.7387 3.31423 17.9131 3.64794 18.262C3.98166 18.6109 4.14851 19.0128 4.14851 19.4679V23.8365H8.51711C8.97218 23.8365 9.37415 24.0034 9.72303 24.3371C10.0719 24.6708 10.2464 25.0804 10.2464 25.5658C10.2464 26.0815 10.0719 26.5062 9.72303 26.8399C9.37415 27.1736 8.97218 27.3405 8.51711 27.3405H2.37377ZM2.41928 10.2756C1.90354 10.2756 1.47881 10.1012 1.1451 9.75233C0.811387 9.40345 0.644531 8.9863 0.644531 8.5009V2.40307C0.644531 1.91767 0.811387 1.50811 1.1451 1.1744C1.47881 0.840684 1.88837 0.673828 2.37377 0.673828H8.51711C8.97218 0.673828 9.37415 0.848269 9.72303 1.19715C10.0719 1.54603 10.2464 1.96317 10.2464 2.44857C10.2464 2.93397 10.0719 3.34353 9.72303 3.67724C9.37415 4.01095 8.97218 4.17781 8.51711 4.17781H4.14851V8.5009C4.14851 8.9863 3.98166 9.40345 3.64794 9.75233C3.31423 10.1012 2.90468 10.2756 2.41928 10.2756ZM19.4841 27.3405C18.9987 27.3405 18.5816 27.1661 18.2327 26.8172C17.8838 26.4683 17.7094 26.0512 17.7094 25.5658C17.7094 25.0804 17.8838 24.6708 18.2327 24.3371C18.5816 24.0034 18.9987 23.8365 19.4841 23.8365H23.8072V19.4679C23.8072 19.0128 23.9741 18.6109 24.3078 18.262C24.6415 17.9131 25.0662 17.7387 25.582 17.7387C26.0674 17.7387 26.4769 17.9131 26.8106 18.262C27.1443 18.6109 27.3112 19.0128 27.3112 19.4679V25.6113C27.3112 26.0967 27.1443 26.5062 26.8106 26.8399C26.4769 27.1736 26.0674 27.3405 25.582 27.3405H19.4841ZM25.5365 10.2756C25.0511 10.2756 24.6415 10.1012 24.3078 9.75233C23.9741 9.40345 23.8072 8.9863 23.8072 8.5009V4.17781H19.4841C18.9987 4.17781 18.5816 4.01095 18.2327 3.67724C17.8838 3.34353 17.7094 2.9188 17.7094 2.40307C17.7094 1.91767 17.8838 1.50811 18.2327 1.1744C18.5816 0.840684 18.9987 0.673828 19.4841 0.673828H25.582C26.0674 0.673828 26.4769 0.840684 26.8106 1.1744C27.1443 1.50811 27.3112 1.91767 27.3112 2.40307V8.5009C27.3112 8.9863 27.1368 9.40345 26.7879 9.75233C26.439 10.1012 26.0219 10.2756 25.5365 10.2756Z" fill="white"/>
</svg>
