<!-- https://fonts.google.com/icons?selected=Material%20Symbols%20Rounded%3Afullscreen_exit%3AFILL%400%3Bwght%40400%3BGRAD%400%3Bopsz%4048 -->
<svg width="40" height="40" viewBox="0 0 40 40" fill="none" xmlns="http://www.w3.org/2000/svg">
		<path d="M14.5 34.7001C14 34.7001 13.5917 34.5335 13.275 34.2001C12.9583 33.8668 12.8 33.4668 12.8 33.0001L12.8 27.9001L7.7 27.9001C7.23333 27.9001 6.83333 27.7335 6.5 27.4001C6.16667 27.0668 6 26.6668 6 26.2001C6 25.7001 6.16667 25.2918 6.5 24.9751C6.83333 24.6585 7.23333 24.5001 7.7 24.5001L14.5 24.5001C14.9667 24.5001 15.3667 24.6668 15.7 25.0001C16.0333 25.3335 16.2 25.7335 16.2 26.2001L16.2 33.0001C16.2 33.4668 16.0333 33.8668 15.7 34.2001C15.3667 34.5335 14.9667 34.7001 14.5 34.7001ZM7.7 16.2001C7.23333 16.2001 6.83333 16.0335 6.5 15.7001C6.16667 15.3668 6 14.9668 6 14.5001C6 14.0001 6.16667 13.5918 6.5 13.2751C6.83333 12.9585 7.23333 12.8001 7.7 12.8001L12.8 12.8001L12.8 7.70012C12.8 7.23346 12.9667 6.83346 13.3 6.50012C13.6333 6.16679 14.0333 6.00012 14.5 6.00012C15 6.00012 15.4083 6.16679 15.725 6.50012C16.0417 6.83346 16.2 7.23346 16.2 7.70012L16.2 14.5001C16.2 14.9668 16.0333 15.3668 15.7 15.7001C15.3667 16.0335 14.9667 16.2001 14.5 16.2001L7.7 16.2001ZM26.2 34.7001C25.7 34.7001 25.2917 34.5335 24.975 34.2001C24.6583 33.8668 24.5 33.4668 24.5 33.0001L24.5 26.2001C24.5 25.7335 24.6667 25.3335 25 25.0001C25.3333 24.6668 25.7333 24.5001 26.2 24.5001L33 24.5001C33.4667 24.5001 33.8667 24.6668 34.2 25.0001C34.5333 25.3335 34.7 25.7335 34.7 26.2001C34.7 26.7001 34.5333 27.1085 34.2 27.4251C33.8667 27.7418 33.4667 27.9001 33 27.9001L27.9 27.9001L27.9 33.0001C27.9 33.4668 27.7333 33.8668 27.4 34.2001C27.0667 34.5335 26.6667 34.7001 26.2 34.7001ZM26.2 16.2001C25.7333 16.2001 25.3333 16.0335 25 15.7001C24.6667 15.3668 24.5 14.9668 24.5 14.5001L24.5 7.70012C24.5 7.23346 24.6667 6.83346 25 6.50012C25.3333 6.16679 25.7333 6.00012 26.2 6.00012C26.7 6.00012 27.1083 6.16679 27.425 6.50012C27.7417 6.83346 27.9 7.23346 27.9 7.70012L27.9 12.8001L33 12.8001C33.4667 12.8001 33.8667 12.9668 34.2 13.3001C34.5333 13.6335 34.7 14.0335 34.7 14.5001C34.7 15.0001 34.5333 15.4085 34.2 15.7251C33.8667 16.0418 33.4667 16.2001 33 16.2001L26.2 16.2001Z" fill="white" />
</svg>
	