<svg width="40" height="40" viewBox="0 0 40 40" fill="none" xmlns="http://www.w3.org/2000/svg">
<g>
<mask id="mask0_3563_829" style="mask-type:alpha" maskUnits="userSpaceOnUse" x="0" y="0" width="40" height="40">
<rect id="Bounding box" width="40" height="40" />
</mask>
<g mask="url(#mask0_3563_829)">
<path d="M1.61108 29.1665C1.61108 28.2036 1.85876 27.3263 2.35413 26.5346C2.84949 25.743 3.52772 25.148 4.38883 24.7499C6.31478 23.8703 8.11571 23.2291 9.79163 22.8263C11.4675 22.4235 13.1851 22.2221 14.9444 22.2221C16.7037 22.2221 18.4166 22.4235 20.0833 22.8263C21.75 23.2291 23.5463 23.8703 25.4722 24.7499C26.3333 25.148 27.0162 25.743 27.5208 26.5346C28.0254 27.3263 28.2778 28.2036 28.2778 29.1665V30.5555C28.2778 31.324 28.0069 31.979 27.4653 32.5207C26.9236 33.0624 26.2685 33.3332 25.5 33.3332H4.38883C3.62031 33.3332 2.96522 33.0624 2.42358 32.5207C1.88192 31.979 1.61108 31.324 1.61108 30.5555V29.1665ZM30.361 33.3332C30.5555 32.8888 30.7198 32.4374 30.8541 31.979C30.9884 31.5207 31.0555 31.0462 31.0555 30.5555V29.0555C31.0555 27.4814 30.6736 26.1504 29.9097 25.0624C29.1458 23.9744 28.0185 23.0555 26.5277 22.3055C28.2777 22.5092 29.9259 22.8078 31.4722 23.2013C33.0185 23.5948 34.324 24.074 35.3888 24.6388C36.3333 25.1758 37.0694 25.817 37.5972 26.5624C38.1249 27.3078 38.3888 28.1388 38.3888 29.0555V30.5555C38.3888 31.324 38.118 31.979 37.5763 32.5207C37.0347 33.0624 36.3796 33.3332 35.6111 33.3332H30.361ZM14.9444 19.9721C13.1111 19.9721 11.5879 19.3656 10.375 18.1527C9.16199 16.9397 8.5555 15.4165 8.5555 13.5832C8.5555 11.7499 9.16199 10.2267 10.375 9.01379C11.5879 7.80082 13.1111 7.19434 14.9444 7.19434C16.7778 7.19434 18.3009 7.80082 19.5138 9.01379C20.7268 10.2267 21.3333 11.7499 21.3333 13.5832C21.3333 15.4165 20.7268 16.9397 19.5138 18.1527C18.3009 19.3656 16.7778 19.9721 14.9444 19.9721ZM30.4999 13.5832C30.4999 15.4165 29.8934 16.9397 28.6805 18.1527C27.4675 19.3656 25.9444 19.9721 24.111 19.9721C23.8055 19.9721 23.449 19.9466 23.0416 19.8957C22.6342 19.8448 22.2777 19.7684 21.9722 19.6665C22.6666 18.9073 23.1967 18.0091 23.5624 16.9721C23.9282 15.9351 24.111 14.8054 24.111 13.5832C24.111 12.361 23.9282 11.2499 23.5624 10.2499C23.1967 9.24988 22.6666 8.33321 21.9722 7.49988C22.3055 7.39804 22.662 7.32166 23.0416 7.27071C23.4212 7.21979 23.7777 7.19434 24.111 7.19434C25.9444 7.19434 27.4675 7.80082 28.6805 9.01379C29.8934 10.2267 30.4999 11.7499 30.4999 13.5832Z" />
</g>
</g>
</svg>
