<svg width="18" height="18" viewBox="0 0 18 18" xmlns="http://www.w3.org/2000/svg">
<mask id="mask0_2743_54679" style="mask-type:alpha" maskUnits="userSpaceOnUse" x="0" y="0" width="18" height="18">
<rect width="18" height="18"/>
</mask>
<g mask="url(#mask0_2743_54679)">
<path d="M5.94345 15.2439H12.0563V12.9187C12.0563 12.0562 11.7593 11.3157 11.1653 10.6971C10.5716 10.0782 9.84975 9.76875 8.99985 9.76875C8.14995 9.76875 7.428 10.0782 6.834 10.6971C6.2403 11.3157 5.94345 12.0562 5.94345 12.9187V15.2439ZM8.99985 8.23155C9.84975 8.23155 10.5716 7.9221 11.1653 7.3032C11.7593 6.6846 12.0563 5.94405 12.0563 5.08155V2.7564H5.94345V5.08155C5.94345 5.94405 6.2403 6.6846 6.834 7.3032C7.428 7.9221 8.14995 8.23155 8.99985 8.23155ZM14.381 16.5003H3.61875C3.44355 16.5003 3.29655 16.4409 3.17775 16.3221C3.05925 16.2033 3 16.0564 3 15.8815C3 15.694 3.05925 15.5409 3.17775 15.4221C3.29655 15.3033 3.44355 15.2439 3.61875 15.2439H4.70595V12.9187C4.70595 12.0814 4.91535 11.3065 5.33415 10.594C5.75295 9.88155 6.34365 9.35025 7.10625 9.00015C6.34365 8.65005 5.75295 8.11875 5.33415 7.40625C4.91535 6.69375 4.70595 5.91885 4.70595 5.08155V2.7564H3.61875C3.44355 2.7564 3.29655 2.69385 3.17775 2.56875C3.05925 2.44395 3 2.29395 3 2.11875C3 1.94385 3.05925 1.797 3.17775 1.6782C3.29655 1.5594 3.44355 1.5 3.61875 1.5H14.381C14.5562 1.5 14.7032 1.5594 14.822 1.6782C14.9405 1.797 14.9997 1.94385 14.9997 2.11875C14.9997 2.30625 14.9405 2.4594 14.822 2.5782C14.7032 2.697 14.5562 2.7564 14.381 2.7564H13.2938V5.08155C13.2938 5.91885 13.0812 6.69375 12.6561 7.40625C12.231 8.11875 11.6435 8.65005 10.8935 9.00015C11.6561 9.35025 12.2468 9.88155 12.6656 10.594C13.0844 11.3065 13.2938 12.0814 13.2938 12.9187V15.2439H14.381C14.5562 15.2439 14.7032 15.3064 14.822 15.4315C14.9405 15.5563 14.9997 15.7063 14.9997 15.8815C14.9997 16.0564 14.9405 16.2033 14.822 16.3221C14.7032 16.4409 14.5562 16.5003 14.381 16.5003Z"/>
</g>
</svg>
