<svg width="40" height="40" viewBox="0 0 40 40" xmlns="http://www.w3.org/2000/svg">
<mask id="mask0_1727_3722" style="mask-type:alpha" maskUnits="userSpaceOnUse" x="0" y="0" width="40" height="40">
<rect width="40" height="40"/>
</mask>
<g mask="url(#mask0_1727_3722)">
<path d="M8.04199 36.667C7.65266 36.667 7.32599 36.535 7.06199 36.271C6.79866 36.007 6.66699 35.6807 6.66699 35.292C6.66699 34.8753 6.79866 34.535 7.06199 34.271C7.32599 34.007 7.65266 33.875 8.04199 33.875H10.458V28.708C10.458 26.8473 10.9233 25.1253 11.854 23.542C12.7847 21.9587 14.0973 20.778 15.792 20C14.0973 19.222 12.7847 18.0413 11.854 16.458C10.9233 14.8747 10.458 13.1527 10.458 11.292V6.12501H8.04199C7.65266 6.12501 7.32599 5.98601 7.06199 5.70801C6.79866 5.43067 6.66699 5.09734 6.66699 4.70801C6.66699 4.31934 6.79866 3.99301 7.06199 3.72901C7.32599 3.46501 7.65266 3.33301 8.04199 3.33301H31.958C32.3473 3.33301 32.674 3.46501 32.938 3.72901C33.2013 3.99301 33.333 4.31934 33.333 4.70801C33.333 5.12467 33.2013 5.46501 32.938 5.72901C32.674 5.99301 32.3473 6.12501 31.958 6.12501H29.542V11.292C29.542 13.1527 29.0697 14.8747 28.125 16.458C27.1803 18.0413 25.8747 19.222 24.208 20C25.9027 20.778 27.2153 21.9587 28.146 23.542C29.0767 25.1253 29.542 26.8473 29.542 28.708V33.875H31.958C32.3473 33.875 32.674 34.014 32.938 34.292C33.2013 34.5693 33.333 34.9027 33.333 35.292C33.333 35.6807 33.2013 36.007 32.938 36.271C32.674 36.535 32.3473 36.667 31.958 36.667H8.04199Z"/>
</g>
</svg>
