<svg width="40" height="40" viewBox="0 0 40 40"  xmlns="http://www.w3.org/2000/svg">
<path d="M26.3335 25.6226C26.3335 26.0112 26.4585 26.3446 26.7085 26.6226C26.9858 26.9006 27.3122 27.0462 27.6875 27.0596C28.0622 27.0736 28.3885 26.9419 28.6665 26.6646L34.3335 20.9976C34.4722 20.8589 34.5692 20.7062 34.6245 20.5396C34.6805 20.3729 34.7085 20.2062 34.7085 20.0396C34.7085 19.8449 34.6805 19.6712 34.6245 19.5186C34.5692 19.3659 34.4722 19.2062 34.3335 19.0396L28.6245 13.3726C28.3472 13.0946 28.0138 12.9556 27.6245 12.9556C27.2358 12.9556 26.9165 13.0946 26.6665 13.3726C26.3885 13.6506 26.2495 13.9839 26.2495 14.3726C26.2495 14.7612 26.3745 15.0806 26.6245 15.3306L29.9165 18.6226H17.0835C16.6942 18.6226 16.3675 18.7546 16.1035 19.0186C15.8402 19.2826 15.7085 19.6089 15.7085 19.9976C15.7085 20.3862 15.8402 20.7126 16.1035 20.9766C16.3675 21.2406 16.6942 21.3726 17.0835 21.3726H29.9585L26.7085 24.6226C26.4585 24.9006 26.3335 25.2339 26.3335 25.6226Z" />
<path d="M6.12475 34.167C6.68075 34.7223 7.33375 35 8.08375 35H15.8331C16.5831 35 17.2361 34.7223 17.7921 34.167C18.3474 33.611 18.6251 32.958 18.6251 32.208V24.7062H17.0833C15.8521 24.7062 14.6646 24.2522 13.7463 23.3339L13.7433 23.3309C12.8279 22.4132 12.375 21.2275 12.375 19.9979C12.375 18.7683 12.8279 17.5826 13.7433 16.6649L13.7463 16.6619C14.6646 15.7435 15.8521 15.2896 17.0833 15.2896H18.6251V7.792C18.6251 7.042 18.3474 6.389 17.7921 5.833C17.2361 5.27767 16.5831 5 15.8331 5H8.08375C7.33375 5 6.68075 5.27767 6.12475 5.833C5.56942 6.389 5.29175 7.042 5.29175 7.792V32.208C5.29175 32.958 5.56942 33.611 6.12475 34.167Z" />
</svg>
