<svg width="40" height="40" viewBox="0 0 40 40" fill="none" xmlns="http://www.w3.org/2000/svg">
<mask id="mask0_1597_3731" style="mask-type:alpha" maskUnits="userSpaceOnUse" x="0" y="0" width="40" height="40">
<rect width="40" height="40" fill="#D9D9D9"/>
</mask>
<g mask="url(#mask0_1597_3731)">
<path d="M11.667 28.333C9.33367 28.333 7.36134 27.5277 5.75001 25.917C4.13867 24.3057 3.33301 22.3333 3.33301 20C3.33301 17.6667 4.13867 15.6943 5.75001 14.083C7.36134 12.4723 9.33367 11.667 11.667 11.667H17.208C17.6247 11.667 17.965 11.799 18.229 12.063C18.493 12.3263 18.625 12.6527 18.625 13.042C18.625 13.4587 18.493 13.799 18.229 14.063C17.965 14.3263 17.6247 14.458 17.208 14.458H11.667C10.0837 14.458 8.76401 14.986 7.70801 16.042C6.65267 17.0973 6.12501 18.4167 6.12501 20C6.12501 21.5833 6.65267 22.9027 7.70801 23.958C8.76401 25.014 10.0837 25.542 11.667 25.542H17.208C17.6247 25.542 17.965 25.6807 18.229 25.958C18.493 26.236 18.625 26.5693 18.625 26.958C18.625 27.3473 18.493 27.674 18.229 27.938C17.965 28.2013 17.6247 28.333 17.208 28.333H11.667ZM14.875 21.375C14.4583 21.375 14.118 21.243 13.854 20.979C13.59 20.715 13.458 20.3887 13.458 20C13.458 19.6113 13.59 19.285 13.854 19.021C14.118 18.757 14.4583 18.625 14.875 18.625H25.125C25.5417 18.625 25.882 18.757 26.146 19.021C26.41 19.285 26.542 19.6113 26.542 20C26.542 20.3887 26.41 20.715 26.146 20.979C25.882 21.243 25.5417 21.375 25.125 21.375H14.875ZM22.792 28.333C22.3753 28.333 22.035 28.2013 21.771 27.938C21.507 27.674 21.375 27.3473 21.375 26.958C21.375 26.5413 21.507 26.2013 21.771 25.938C22.035 25.674 22.3753 25.542 22.792 25.542H28.333C29.9163 25.542 31.236 25.014 32.292 23.958C33.3473 22.9027 33.875 21.5833 33.875 20C33.875 18.4167 33.3473 17.0973 32.292 16.042C31.236 14.986 29.9163 14.458 28.333 14.458H22.792C22.3753 14.458 22.035 14.3193 21.771 14.042C21.507 13.764 21.375 13.4307 21.375 13.042C21.375 12.6527 21.507 12.3263 21.771 12.063C22.035 11.799 22.3753 11.667 22.792 11.667H28.333C30.6663 11.667 32.6387 12.4723 34.25 14.083C35.8613 15.6943 36.667 17.6667 36.667 20C36.667 22.3333 35.8613 24.3057 34.25 25.917C32.6387 27.5277 30.6663 28.333 28.333 28.333H22.792Z" />
</g>
</svg>
