<svg width="40" height="40" viewBox="0 0 40 40" xmlns="http://www.w3.org/2000/svg">
<mask id="mask0_1196_2447" style="mask-type:alpha" maskUnits="userSpaceOnUse" x="0" y="0" width="40" height="40">
<rect width="40" height="40" fill="#D9D9D9"/>
</mask>
<g mask="url(#mask0_1196_2447)">
<path d="M9.45799 36.667C8.68066 36.667 8.02099 36.396 7.47899 35.854C6.93766 35.3127 6.66699 34.653 6.66699 33.875V16.292C6.66699 15.514 6.93766 14.854 7.47899 14.312C8.02099 13.7707 8.68066 13.5 9.45799 13.5H11.958V9.70799C11.958 7.48599 12.7427 5.59033 14.312 4.02099C15.882 2.45166 17.778 1.66699 20 1.66699C22.222 1.66699 24.118 2.45166 25.688 4.02099C27.2573 5.59033 28.042 7.48599 28.042 9.70799V13.5H30.542C31.3193 13.5 31.979 13.7707 32.521 14.312C33.0623 14.854 33.333 15.514 33.333 16.292V33.875C33.333 34.653 33.0623 35.3127 32.521 35.854C31.979 36.396 31.3193 36.667 30.542 36.667H9.45799ZM20 28.333C20.8887 28.333 21.6527 28.0207 22.292 27.396C22.9307 26.7707 23.25 26.0137 23.25 25.125C23.25 24.2637 22.9307 23.4997 22.292 22.833C21.6527 22.1663 20.8887 21.833 20 21.833C19.1113 21.833 18.3473 22.1663 17.708 22.833C17.0693 23.4997 16.75 24.2777 16.75 25.167C16.75 26.0277 17.0693 26.7707 17.708 27.396C18.3473 28.0207 19.1113 28.333 20 28.333ZM14.708 13.5H25.292V9.70799C25.292 8.26399 24.778 7.02799 23.75 5.99999C22.722 4.97199 21.472 4.45799 20 4.45799C18.528 4.45799 17.278 4.97199 16.25 5.99999C15.222 7.02799 14.708 8.26399 14.708 9.70799V13.5Z"/>
</g>
</svg>
