<!-- https://fonts.google.com/icons?selected=Material%20Icons%20Round%3Alogout%3A -->
<svg width="40" height="40" viewBox="0 0 40 40" fill="none" xmlns="http://www.w3.org/2000/svg">
<mask id="mask0_1026_2894" style="mask-type:alpha" maskUnits="userSpaceOnUse" x="0" y="0" width="40" height="40">
<rect width="40" height="40"/>
</mask>
<g mask="url(#mask0_1026_2894)">
<path d="M26.417 26.625C26.167 26.347 26.042 26.0137 26.042 25.625C26.042 25.2363 26.167 24.903 26.417 24.625L29.667 21.375H16.792C16.4027 21.375 16.076 21.243 15.812 20.979C15.5487 20.715 15.417 20.3887 15.417 20C15.417 19.6113 15.5487 19.285 15.812 19.021C16.076 18.757 16.4027 18.625 16.792 18.625H29.625L26.333 15.333C26.083 15.083 25.958 14.7637 25.958 14.375C25.958 13.9863 26.097 13.653 26.375 13.375C26.625 13.097 26.9443 12.958 27.333 12.958C27.7223 12.958 28.0557 13.097 28.333 13.375L34.042 19.042C34.1807 19.2087 34.2777 19.3683 34.333 19.521C34.389 19.6737 34.417 19.8473 34.417 20.042C34.417 20.2087 34.389 20.3753 34.333 20.542C34.2777 20.7087 34.1807 20.8613 34.042 21L28.375 26.667C28.097 26.9443 27.7707 27.076 27.396 27.062C27.0207 27.0487 26.6943 26.903 26.417 26.625ZM7.792 35C7.042 35 6.389 34.7223 5.833 34.167C5.27767 33.611 5 32.958 5 32.208V7.792C5 7.042 5.27767 6.389 5.833 5.833C6.389 5.27767 7.042 5 7.792 5H18.375C18.7637 5 19.09 5.132 19.354 5.396C19.618 5.66 19.75 5.98633 19.75 6.375C19.75 6.79167 19.618 7.132 19.354 7.396C19.09 7.66 18.7637 7.792 18.375 7.792H7.792V32.208H18.375C18.7637 32.208 19.09 32.347 19.354 32.625C19.618 32.903 19.75 33.2363 19.75 33.625C19.75 34.0137 19.618 34.34 19.354 34.604C19.09 34.868 18.7637 35 18.375 35H7.792Z"/>
</g>
</svg>
