<svg width="40" height="40" viewBox="0 0 40 40" xmlns="http://www.w3.org/2000/svg">
<mask id="mask0_1781_3785" style="mask-type:alpha" maskUnits="userSpaceOnUse" x="0" y="0" width="40" height="40">
<rect width="40" height="40" />
</mask>
<g mask="url(#mask0_1781_3785)">
<path d="M29.417 25.458L27.417 23.458C27.8057 22.9307 28.118 22.3613 28.354 21.75C28.59 21.1387 28.7497 20.4997 28.833 19.833C28.9163 19.4997 29.09 19.208 29.354 18.958C29.618 18.708 29.9167 18.583 30.25 18.583C30.6667 18.583 31.014 18.729 31.292 19.021C31.5693 19.3123 31.6803 19.6663 31.625 20.083C31.4863 21.0557 31.2293 22.0003 30.854 22.917C30.4793 23.8337 30.0003 24.6807 29.417 25.458ZM24.208 20.208L15.583 11.583V8.29201C15.583 7.06934 16.0207 6.02067 16.896 5.14601C17.7707 4.27067 18.8193 3.83301 20.042 3.83301C21.292 3.83301 22.3543 4.27067 23.229 5.14601C24.1043 6.02067 24.542 7.06934 24.542 8.29201V18.583C24.542 18.833 24.514 19.111 24.458 19.417C24.4027 19.7223 24.3193 19.986 24.208 20.208ZM33.625 37.292L3.20801 6.83301C2.95801 6.58301 2.83301 6.27067 2.83301 5.89601C2.83301 5.52067 2.95801 5.20801 3.20801 4.95801C3.45801 4.70801 3.76367 4.58301 4.12501 4.58301C4.48634 4.58301 4.79201 4.70801 5.04201 4.95801L35.5 35.458C35.75 35.708 35.875 36.0137 35.875 36.375C35.875 36.7363 35.75 37.042 35.5 37.292C35.25 37.542 34.9373 37.667 34.562 37.667C34.1873 37.667 33.875 37.542 33.625 37.292ZM18.667 34.125V30C16.0003 29.6947 13.7223 28.6113 11.833 26.75C9.94434 24.8887 8.83334 22.6663 8.50001 20.083C8.41667 19.6663 8.52067 19.3123 8.81201 19.021C9.10401 18.729 9.47234 18.583 9.91701 18.583C10.2503 18.583 10.542 18.708 10.792 18.958C11.042 19.208 11.1947 19.4997 11.25 19.833C11.5833 21.9723 12.5693 23.7573 14.208 25.188C15.8473 26.618 17.792 27.333 20.042 27.333C21.0973 27.333 22.0833 27.1663 23 26.833C23.9167 26.4997 24.764 26.0413 25.542 25.458L27.5 27.458C26.6667 28.1527 25.736 28.7153 24.708 29.146C23.6807 29.5767 22.5973 29.8613 21.458 30V34.125C21.458 34.5137 21.326 34.84 21.062 35.104C20.7987 35.368 20.4587 35.5 20.042 35.5C19.6527 35.5 19.326 35.368 19.062 35.104C18.7987 34.84 18.667 34.5137 18.667 34.125Z" />
</g>
</svg>
