<svg width="40" height="40" viewBox="0 0 40 40" xmlns="http://www.w3.org/2000/svg">
<path d="M20.0001 23.208C18.7501 23.208 17.6944 22.7567 16.8331 21.854C15.9724 20.9513 15.5421 19.861 15.5421 18.583V8.29201C15.5421 7.04201 15.9724 5.98634 16.8331 5.12501C17.6944 4.26367 18.7501 3.83301 20.0001 3.83301C21.2501 3.83301 22.3057 4.26367 23.1671 5.12501C24.0277 5.98634 24.4581 7.04201 24.4581 8.29201V18.583C24.4581 19.861 24.0277 20.9513 23.1671 21.854C22.3057 22.7567 21.2501 23.208 20.0001 23.208ZM20.0001 35.5C19.6114 35.5 19.2851 35.368 19.0211 35.104C18.7571 34.84 18.6251 34.5137 18.6251 34.125V30C15.9304 29.6947 13.6387 28.6113 11.7501 26.75C9.86142 24.8887 8.75042 22.6663 8.41708 20.083C8.36108 19.6663 8.47908 19.3123 8.77108 19.021C9.06242 18.729 9.43042 18.583 9.87508 18.583C10.1804 18.583 10.4651 18.708 10.7291 18.958C10.9931 19.208 11.1527 19.4997 11.2081 19.833C11.5414 21.9723 12.5207 23.7573 14.1461 25.188C15.7707 26.618 17.7221 27.333 20.0001 27.333C22.2501 27.333 24.1944 26.618 25.8331 25.188C27.4724 23.7573 28.4587 21.9723 28.7921 19.833C28.8474 19.4723 29.0141 19.174 29.2921 18.938C29.5694 18.7013 29.8611 18.583 30.1671 18.583C30.6111 18.583 30.9721 18.729 31.2501 19.021C31.5281 19.3123 31.6391 19.6663 31.5831 20.083C31.2497 22.6663 30.1387 24.8887 28.2501 26.75C26.3614 28.6113 24.0697 29.6947 21.3751 30V34.125C21.3751 34.5137 21.2431 34.84 20.9791 35.104C20.7151 35.368 20.3887 35.5 20.0001 35.5Z" />
</svg>
