<svg width="24" height="24" viewBox="0 0 24 24" xmlns="http://www.w3.org/2000/svg">
	<path d="M6 2H13.1716C13.702 2 14.2107 2.21071 14.5858 2.58579L19.7574 7.75736C19.9127 7.91272 20 8.12343 20 8.34315V9C20 9.55228 19.5523 10 19 10C18.4477 10 18 9.55228 18 9H14C13.4477 9 13 8.55228 13 8V4H6V20H9C9.55228 20 10 20.4477 10 21C10 21.5523 9.55229 22 9 22H5.99C4.89 22 4 21.1 4 20V4C4 2.9 4.9 2 6 2Z" />
	<path d="M22.3 20.9L20.3 18.9C20.88 17.89 21.25 16.67 20.81 15.25C20.28 13.53 18.77 12.2 16.97 12.03C14.1 11.75 11.74 14.1 12.02 16.98C12.2 18.77 13.52 20.29 15.24 20.82C16.67 21.26 17.88 20.89 18.89 20.31L20.89 22.31C21.28 22.7 21.9 22.7 22.29 22.31C22.68 21.92 22.69 21.29 22.3 20.9ZM16.5 19C15.1 19 14 17.9 14 16.5C14 15.1 15.1 14 16.5 14C17.9 14 19 15.1 19 16.5C19 17.9 17.9 19 16.5 19Z" />
	<path d="M17.8576 15.1423C17.6678 14.9526 17.3613 14.9526 17.1715 15.1423L16.4999 15.8139L15.8284 15.1423C15.6386 14.9526 15.3321 14.9526 15.1423 15.1423C14.9525 15.3321 14.9525 15.6387 15.1423 15.8285L15.8138 16.5L15.1423 17.1715C14.9525 17.3613 14.9525 17.6679 15.1423 17.8577C15.3321 18.0474 15.6386 18.0474 15.8284 17.8577L16.4999 17.1861L17.1715 17.8577C17.3613 18.0474 17.6678 18.0474 17.8576 17.8577C18.0474 17.6679 18.0474 17.3613 17.8576 17.1715L17.1861 16.5L17.8576 15.8285C18.0474 15.6387 18.0474 15.3321 17.8576 15.1423Z" />
</svg>
	