<!-- https://fonts.google.com/icons?selected=Material%20Symbols%20Rounded%3Asignal_disconnected%3AFILL%401%3Bwght%40400%3BGRAD%400%3Bopsz%4040 -->
<svg width="40" height="40" viewBox="0 0 40 40" xmlns="http://www.w3.org/2000/svg">
	<path d="M4.5076 6.87302C3.85796 7.52266 3.83605 8.55016 4.45856 9.17267L30.4922 35.2063C31.1147 35.8288 32.1422 35.8069 32.7919 35.1573C33.4415 34.5076 33.4634 33.4801 32.8409 32.8576L6.82356 6.82363C6.20105 6.20112 5.15724 6.22338 4.5076 6.87302Z" />
	<path fill-rule="evenodd" clip-rule="evenodd" d="M12.3419 12.3419L13.6729 13.6729C13.6955 13.9788 13.608 14.2909 13.3999 14.5406C12.2499 15.9573 11.6666 17.7573 11.6666 19.5573C11.6666 21.2406 12.2666 23.0406 13.4499 24.5573C13.8499 25.0573 13.7666 25.7906 13.3166 26.2406L13.1666 26.3906C12.5999 26.9573 11.6666 26.8906 11.1666 26.2573C9.64991 24.2906 8.83324 21.924 8.83324 19.5573C8.83324 17.1906 9.64991 14.824 11.1666 12.8573C11.4621 12.483 11.9089 12.3066 12.3419 12.3419ZM8.33675 8.33675L9.65529 9.65529C9.67887 9.99937 9.56634 10.3538 9.33325 10.6406C7.21659 13.2073 6.16659 16.4406 6.16659 19.5573C6.16659 22.674 7.21659 25.9073 9.33325 28.474C9.76659 29.0073 9.78325 29.774 9.28325 30.274L9.14992 30.4073C8.59992 30.974 7.68325 30.8906 7.18325 30.274C4.64992 27.1406 3.33325 23.424 3.33325 19.5573C3.33325 15.6906 4.64992 11.974 7.18325 8.84063C7.47692 8.47844 7.91433 8.30598 8.33675 8.33675ZM16.2499 16.2499L23.3072 23.3072C22.4258 24.0852 21.268 24.5573 19.9999 24.5573C17.2385 24.5573 14.9999 22.3187 14.9999 19.5573C14.9999 18.2892 15.472 17.1314 16.2499 16.2499ZM24.9525 20.2485L19.3118 14.6042C19.5367 14.5733 19.7664 14.5573 19.9999 14.5573C22.7613 14.5573 24.9999 16.7959 24.9999 19.5573C24.9999 19.7918 24.9837 20.0226 24.9525 20.2485ZM29.6871 24.9862L27.6211 22.9188C28.0943 21.8662 28.3333 20.7152 28.3333 19.5573C28.3333 17.874 27.7333 16.074 26.5666 14.5406C26.1666 14.0406 26.2499 13.3073 26.6999 12.8573L26.8333 12.724C27.3999 12.1573 28.3499 12.224 28.8333 12.874C30.3166 14.8406 31.0333 17.2073 31.1666 19.5573C31.1666 21.4301 30.6619 23.303 29.6871 24.9862ZM33.7701 29.0718L31.7142 27.0146C33.13 24.737 33.8333 22.1081 33.8333 19.5573C33.8333 16.4406 32.7666 13.1906 30.6666 10.6406C30.2333 10.1073 30.2167 9.34063 30.7167 8.84063L30.85 8.70729C31.4 8.15729 32.3166 8.22396 32.8166 8.84063C35.35 11.974 36.6666 15.6906 36.6666 19.5573C36.6666 22.9323 35.7573 26.2049 33.7701 29.0718Z" />
</svg>