<svg width="40" height="40" viewBox="0 0 40 40" fill="none" xmlns="http://www.w3.org/2000/svg">
<mask id="mask0_1594_3717" style="mask-type:alpha" maskUnits="userSpaceOnUse" x="0" y="0" width="40" height="40">
<rect width="40" height="40" fill="#D9D9D9"/>
</mask>
<g mask="url(#mask0_1594_3717)">
<path d="M8.04203 33.333C7.65269 33.333 7.32603 33.2013 7.06203 32.938C6.79869 32.674 6.66703 32.3473 6.66703 31.958V29.167C6.66703 28.139 6.92369 27.243 7.43703 26.479C7.95103 25.715 8.62469 25.1387 9.45803 24.75C10.986 24.028 12.4794 23.4653 13.938 23.062C15.396 22.6593 16.861 22.4027 18.333 22.292L3.41703 7.41699C3.13903 7.13899 3.00703 6.81266 3.02103 6.43799C3.03503 6.06266 3.18069 5.73599 3.45803 5.45799C3.73603 5.18066 4.06936 5.04199 4.45803 5.04199C4.84736 5.04199 5.18069 5.18066 5.45803 5.45799L34.583 34.583C34.861 34.861 35 35.1873 35 35.562C35 35.9373 34.861 36.264 34.583 36.542C34.3057 36.8193 33.9724 36.958 33.583 36.958C33.1944 36.958 32.861 36.8193 32.583 36.542L29.375 33.333H8.04203ZM33.333 29.375L27.5 23.542C28 23.7087 28.5 23.896 29 24.104C29.5 24.3127 30.014 24.528 30.542 24.75C31.3754 25.1387 32.0487 25.715 32.562 26.479C33.076 27.243 33.333 28.125 33.333 29.125V29.375ZM23.167 19.208L14.375 10.417C14.9584 9.38899 15.75 8.59733 16.75 8.04199C17.75 7.48599 18.8334 7.20799 20 7.20799C21.778 7.20799 23.285 7.82633 24.521 9.06299C25.757 10.299 26.375 11.8057 26.375 13.583C26.375 14.7497 26.0974 15.833 25.542 16.833C24.986 17.833 24.1944 18.6247 23.167 19.208Z" />
</g>
</svg>
