<svg width="40" height="40" viewBox="0 0 40 40" xmlns="http://www.w3.org/2000/svg">
<path d="M31.667 23.333C31.2777 23.333 30.9513 23.2013 30.688 22.938C30.424 22.674 30.292 22.3473 30.292 21.958V18.042H26.375C25.9863 18.042 25.66 17.91 25.396 17.646C25.132 17.382 25 17.0557 25 16.667C25 16.2777 25.132 15.9513 25.396 15.688C25.66 15.424 25.9863 15.292 26.375 15.292H30.292V11.375C30.292 10.9863 30.424 10.66 30.688 10.396C30.9513 10.132 31.2777 10 31.667 10C32.0557 10 32.382 10.132 32.646 10.396C32.91 10.66 33.042 10.9863 33.042 11.375V15.292H36.958C37.3473 15.292 37.674 15.424 37.938 15.688C38.2013 15.9513 38.333 16.2777 38.333 16.667C38.333 17.0557 38.2013 17.382 37.938 17.646C37.674 17.91 37.3473 18.042 36.958 18.042H33.042V21.958C33.042 22.3473 32.91 22.674 32.646 22.938C32.382 23.2013 32.0557 23.333 31.667 23.333ZM15 19.958C13.1667 19.958 11.646 19.354 10.438 18.146C9.22933 16.9373 8.62499 15.4163 8.62499 13.583C8.62499 11.7497 9.22933 10.229 10.438 9.02101C11.646 7.81234 13.1667 7.20801 15 7.20801C16.8333 7.20801 18.354 7.81234 19.562 9.02101C20.7707 10.229 21.375 11.7497 21.375 13.583C21.375 15.4163 20.7707 16.9373 19.562 18.146C18.354 19.354 16.8333 19.958 15 19.958ZM3.04199 33.333C2.65266 33.333 2.32599 33.2013 2.06199 32.938C1.79866 32.674 1.66699 32.3473 1.66699 31.958V29.167C1.66699 28.1943 1.91699 27.3123 2.41699 26.521C2.91699 25.729 3.59733 25.1387 4.45799 24.75C6.40266 23.8613 8.21533 23.2153 9.89599 22.812C11.5767 22.4093 13.278 22.208 15 22.208C16.722 22.208 18.4233 22.4093 20.104 22.812C21.7847 23.2153 23.5973 23.8613 25.542 24.75C26.4027 25.1667 27.083 25.764 27.583 26.542C28.083 27.3193 28.333 28.1943 28.333 29.167V31.958C28.333 32.3473 28.2013 32.674 27.938 32.938C27.674 33.2013 27.3473 33.333 26.958 33.333H3.04199Z" />
</svg>
