<svg width="40" height="40" viewBox="0 0 40 40" xmlns="http://www.w3.org/2000/svg">
<path d="M19 16.292H28.125V13.5H19V16.292ZM19 26H28.125V23.208H19V26ZM14.417 17.458C15.111 17.458 15.708 17.208 16.208 16.708C16.708 16.208 16.958 15.597 16.958 14.875C16.958 14.1803 16.708 13.583 16.208 13.083C15.708 12.583 15.111 12.333 14.417 12.333C13.7223 12.333 13.125 12.583 12.625 13.083C12.125 13.583 11.875 14.1803 11.875 14.875C11.875 15.597 12.125 16.208 12.625 16.708C13.125 17.208 13.7223 17.458 14.417 17.458ZM14.417 27.167C15.111 27.167 15.708 26.917 16.208 26.417C16.708 25.917 16.958 25.3197 16.958 24.625C16.958 23.903 16.708 23.292 16.208 22.792C15.708 22.292 15.111 22.042 14.417 22.042C13.7223 22.042 13.125 22.292 12.625 22.792C12.125 23.292 11.875 23.903 11.875 24.625C11.875 25.3197 12.125 25.917 12.625 26.417C13.125 26.917 13.7223 27.167 14.417 27.167ZM7.542 34.75C6.792 34.75 6.139 34.4723 5.583 33.917C5.02767 33.361 4.75 32.708 4.75 31.958V7.542C4.75 6.792 5.02767 6.139 5.583 5.583C6.139 5.02767 6.792 4.75 7.542 4.75H31.958C32.708 4.75 33.361 5.02767 33.917 5.583C34.4723 6.139 34.75 6.792 34.75 7.542V31.958C34.75 32.708 34.4723 33.361 33.917 33.917C33.361 34.4723 32.708 34.75 31.958 34.75H7.542Z" />
</svg>
