<svg xmlns="http://www.w3.org/2000/svg" width="40" height="40" viewBox="0 0 40 40" fill="none">
<path d="M18.1732 20C18.6772 20 19.0732 19.604 19.0732 19.1V3.8C19.0732 2.81 19.8832 2 20.8732 2C21.8632 2 22.6732 2.81 22.6732 3.8V19.1C22.6732 19.604 23.0692 20 23.5732 20C24.0772 20 24.4732 19.604 24.4732 19.1V6.05C24.4732 5.06 25.2832 4.25 26.2732 4.25C27.2632 4.25 28.0732 5.06 28.0732 6.05V19.1C28.0732 19.604 28.4692 20 28.9732 20C29.4772 20 29.8732 19.604 29.8732 19.1V11C29.8732 10.01 30.6832 9.2 31.6732 9.2C32.6632 9.2 33.4732 10.01 33.4732 11V26.3C33.4732 32.762 28.2352 38 21.7732 38C16.9312 38 12.5752 35.048 10.7752 30.548L6.13123 18.866C5.57323 17.462 6.88723 16.04 8.32723 16.49L9.01123 16.706C9.80323 16.922 10.4332 17.516 10.7392 18.272L11.3872 19.892L13.0612 24.068C13.1692 24.32 13.4032 24.482 13.6732 24.482V6.482C13.6732 5.492 14.4832 4.682 15.4732 4.682C16.4632 4.682 17.2732 5.492 17.2732 6.482V19.082C17.2732 19.604 17.6692 20 18.1732 20Z" />
</svg>