<svg xmlns="http://www.w3.org/2000/svg" width="24" height="24" viewBox="0 0 24 24" fill="none">
<path d="M10.9035 12C11.2059 12 11.4435 11.7624 11.4435 11.46L11.4435 2.27995C11.4435 1.68595 11.9295 1.19995 12.5235 1.19995C13.1175 1.19995 13.6035 1.68595 13.6035 2.27995L13.6035 11.46C13.6035 11.7624 13.8411 12 14.1435 12C14.4459 12 14.6835 11.7624 14.6835 11.46L14.6835 3.62995C14.6835 3.03595 15.1695 2.54995 15.7635 2.54995C16.3575 2.54995 16.8435 3.03595 16.8435 3.62995L16.8435 11.46C16.8435 11.7624 17.0811 12 17.3835 12C17.6859 12 17.9235 11.7624 17.9235 11.46L17.9235 6.59995C17.9235 6.00595 18.4095 5.51995 19.0035 5.51995C19.5975 5.51995 20.0835 6.00595 20.0835 6.59995L20.0835 15.78C20.0835 19.6572 16.9407 22.8 13.0635 22.8C10.1583 22.8 7.54475 21.0288 6.46475 18.3288L3.67835 11.3196C3.34355 10.4772 4.13195 9.62395 4.99595 9.89395L5.40635 10.0236C5.88155 10.1532 6.25955 10.5096 6.44315 10.9632L6.83195 11.9352L7.83635 14.4408C7.90115 14.592 8.04155 14.6892 8.20355 14.6892L8.20355 3.88915C8.20355 3.29515 8.68955 2.80915 9.28355 2.80915C9.87755 2.80915 10.3635 3.29515 10.3635 3.88915L10.3635 11.4492C10.3635 11.7624 10.6011 12 10.9035 12Z" />
</svg>