<svg width="40" height="40" viewBox="0 0 40 40" xmlns="http://www.w3.org/2000/svg">
<mask id="mask0_1781_3793" style="mask-type:alpha" maskUnits="userSpaceOnUse" x="0" y="0" width="40" height="40">
<rect width="40" height="40" />
</mask>
<g mask="url(#mask0_1781_3793)">
<path d="M33.875 30.667L23.333 20.125L25.875 17.583C25.9303 17.5557 26.0137 17.389 26.125 17.083C26.125 16.9997 26.104 16.9093 26.062 16.812C26.0207 16.7153 25.9583 16.639 25.875 16.583L23.125 13.833C22.903 13.611 22.653 13.5557 22.375 13.667C22.097 13.7777 21.958 13.986 21.958 14.292V15.708H18.917L8.87499 5.66701H33.708C34.458 5.66701 35.111 5.94467 35.667 6.50001C36.2223 7.05534 36.5 7.70801 36.5 8.45801V27.958C36.5 28.6807 36.25 29.2987 35.75 29.812C35.25 30.326 34.625 30.611 33.875 30.667ZM33.667 38.333L30.667 35.375H3.04199C2.65266 35.375 2.32599 35.243 2.06199 34.979C1.79866 34.715 1.66699 34.3747 1.66699 33.958C1.66699 33.5693 1.79866 33.243 2.06199 32.979C2.32599 32.715 2.65266 32.583 3.04199 32.583H27.875L26.042 30.75H6.29199C5.54199 30.75 4.89599 30.4723 4.35399 29.917C3.81266 29.361 3.54199 28.708 3.54199 27.958V8.25001L2.24999 6.95801C1.97199 6.68067 1.83299 6.34734 1.83299 5.95801C1.83299 5.56934 1.97199 5.23601 2.24999 4.95801C2.52799 4.70801 2.86133 4.58301 3.24999 4.58301C3.63866 4.58301 3.95799 4.70801 4.20799 4.95801L35.625 36.375C35.903 36.653 36.042 36.9793 36.042 37.354C36.042 37.7293 35.903 38.0557 35.625 38.333C35.375 38.611 35.0557 38.75 34.667 38.75C34.2777 38.75 33.9443 38.611 33.667 38.333ZM15.083 24.208C15.4723 24.208 15.7987 24.076 16.062 23.812C16.326 23.5487 16.458 23.2087 16.458 22.792V21.167L14.042 18.75C13.9027 19.028 13.8123 19.3337 13.771 19.667C13.729 20.0003 13.708 20.3057 13.708 20.583V22.792C13.708 23.2087 13.84 23.5487 14.104 23.812C14.368 24.076 14.6943 24.208 15.083 24.208Z" />
</g>
</svg>
