<svg width="40" height="40" viewBox="0 0 40 40" xmlns="http://www.w3.org/2000/svg">
<path d="M15.083 24.208C15.4723 24.208 15.7987 24.076 16.062 23.812C16.326 23.5487 16.458 23.2087 16.458 22.792V20.583C16.458 19.9723 16.6593 19.4653 17.062 19.062C17.4653 18.6593 17.9723 18.458 18.583 18.458H21.958V19.875C21.958 20.1803 22.097 20.3887 22.375 20.5C22.653 20.6113 22.903 20.5557 23.125 20.333L25.875 17.583C25.9303 17.5557 26.0137 17.389 26.125 17.083C26.125 17.0277 26.0417 16.861 25.875 16.583L23.125 13.833C22.903 13.611 22.653 13.5557 22.375 13.667C22.097 13.7777 21.958 13.986 21.958 14.292V15.708H18.583C17.2223 15.708 16.0697 16.1803 15.125 17.125C14.1803 18.0697 13.708 19.2223 13.708 20.583V22.792C13.708 23.2087 13.84 23.5487 14.104 23.812C14.368 24.076 14.6943 24.208 15.083 24.208ZM6.12499 30.5C5.34699 30.5 4.68733 30.2293 4.14599 29.688C3.60399 29.146 3.33299 28.486 3.33299 27.708V8.292C3.33299 7.514 3.60399 6.854 4.14599 6.312C4.68733 5.77067 5.34699 5.5 6.12499 5.5H33.875C34.653 5.5 35.3127 5.77067 35.854 6.312C36.396 6.854 36.667 7.514 36.667 8.292V27.708C36.667 28.486 36.396 29.146 35.854 29.688C35.3127 30.2293 34.653 30.5 33.875 30.5H6.12499ZM3.04199 35.5C2.65266 35.5 2.32599 35.368 2.06199 35.104C1.79866 34.84 1.66699 34.5137 1.66699 34.125C1.66699 33.7083 1.79866 33.368 2.06199 33.104C2.32599 32.84 2.65266 32.708 3.04199 32.708H36.958C37.3473 32.708 37.674 32.847 37.938 33.125C38.2013 33.403 38.333 33.7363 38.333 34.125C38.333 34.5137 38.2013 34.84 37.938 35.104C37.674 35.368 37.3473 35.5 36.958 35.5H3.04199Z" />
</svg>
