<svg width="40" height="40" viewBox="0 0 40 40" xmlns="http://www.w3.org/2000/svg">
<path d="M32 33.958L22.208 24.167C21.3747 24.861 20.4027 25.4093 19.292 25.812C18.1807 26.2153 17.014 26.417 15.792 26.417C12.764 26.417 10.2083 25.3753 8.125 23.292C6.04167 21.2087 5 18.6807 5 15.708C5 12.736 6.04167 10.2013 8.125 8.10401C10.2083 6.00667 12.75 4.95801 15.75 4.95801C18.722 4.95801 21.2497 6.00667 23.333 8.10401C25.4163 10.2013 26.458 12.736 26.458 15.708C26.458 16.9027 26.2637 18.0487 25.875 19.146C25.4863 20.2433 24.917 21.264 24.167 22.208L34.042 32C34.3193 32.278 34.458 32.6043 34.458 32.979C34.458 33.3543 34.3053 33.6807 34 33.958C33.722 34.236 33.3817 34.375 32.979 34.375C32.5763 34.375 32.25 34.236 32 33.958ZM15.75 23.625C17.9447 23.625 19.8127 22.854 21.354 21.312C22.896 19.7707 23.667 17.9027 23.667 15.708C23.667 13.514 22.896 11.639 21.354 10.083C19.8127 8.52767 17.9447 7.75001 15.75 7.75001C13.528 7.75001 11.646 8.52767 10.104 10.083C8.56267 11.639 7.792 13.514 7.792 15.708C7.792 17.9027 8.56267 19.7707 10.104 21.312C11.646 22.854 13.528 23.625 15.75 23.625Z"/>
</svg>
