<!-- https://fonts.google.com/icons?selected=Material%20Icons%20Round%3Asettings%3A -->
<svg width="40" height="40" viewBox="0 0 40 40" fill="#000000" xmlns="http://www.w3.org/2000/svg">
  <path d="M21.792 35L18.167 35C17.889 35 17.632 34.9027 17.396 34.708C17.16 34.514 17.014 34.264 16.958 33.958L16.458 30.208C15.8747 30.0413 15.236 29.7637 14.542 29.375C13.8473 28.9863 13.264 28.5697 12.792 28.125L9.375 29.667C9.06967 29.7777 8.771 29.7847 8.479 29.688C8.18767 29.5907 7.97233 29.403 7.833 29.125L5.958 25.917C5.81933 25.639 5.78467 25.354 5.854 25.062C5.92333 24.7707 6.083 24.5277 6.333 24.333L9.375 22.083C9.31967 21.7497 9.271 21.4027 9.229 21.042C9.18767 20.6807 9.167 20.3473 9.167 20.042C9.167 19.736 9.18767 19.4093 9.229 19.062C9.271 18.7153 9.31967 18.3337 9.375 17.917L6.333 15.667C6.083 15.4723 5.92334 15.2293 5.854 14.938C5.78467 14.646 5.81934 14.361 5.958 14.083L7.833 10.917C7.99967 10.667 8.222 10.4863 8.5 10.375C8.778 10.2637 9.05567 10.2777 9.333 10.417L12.75 11.917C13.3053 11.4443 13.9093 11.0207 14.562 10.646C15.2153 10.2707 15.8337 9.99967 16.417 9.833L16.958 6.042C17.014 5.736 17.16 5.486 17.396 5.292C17.632 5.09733 17.889 5 18.167 5L21.792 5C22.0973 5 22.368 5.09733 22.604 5.292C22.84 5.486 22.986 5.736 23.042 6.042L23.542 9.833C24.2087 10.083 24.8337 10.368 25.417 10.688C26.0003 11.0073 26.5697 11.417 27.125 11.917L30.667 10.417C30.9443 10.2777 31.229 10.2567 31.521 10.354C31.8123 10.4513 32.0277 10.639 32.167 10.917L34.042 14.083C34.1807 14.361 34.2223 14.646 34.167 14.938C34.111 15.2293 33.9443 15.4723 33.667 15.667L30.5 18C30.6113 18.3613 30.674 18.7087 30.688 19.042C30.7013 19.3753 30.708 19.6947 30.708 20C30.708 20.278 30.6943 20.5837 30.667 20.917C30.639 21.2503 30.5833 21.6253 30.5 22.042L33.625 24.333C33.875 24.4997 34.0347 24.736 34.104 25.042C34.1733 25.3473 34.1247 25.639 33.958 25.917L32.125 29.125C31.9583 29.403 31.7293 29.5907 31.438 29.688C31.146 29.7847 30.861 29.7637 30.583 29.625L27.125 28.083C26.5697 28.5557 25.9933 28.9793 25.396 29.354C24.7987 29.7293 24.1807 30.0003 23.542 30.167L23.042 33.958C22.986 34.264 22.84 34.514 22.604 34.708C22.368 34.9027 22.0973 35 21.792 35ZM19.917 24.042C21.0557 24.042 22.014 23.653 22.792 22.875C23.5693 22.097 23.958 21.1387 23.958 20C23.958 18.8613 23.5693 17.903 22.792 17.125C22.014 16.347 21.0557 15.958 19.917 15.958C18.8057 15.958 17.854 16.347 17.062 17.125C16.2707 17.903 15.875 18.8613 15.875 20C15.875 21.1387 16.2707 22.097 17.062 22.875C17.854 23.653 18.8057 24.042 19.917 24.042Z" fill="white" />
</svg>