<!-- https://fonts.google.com/icons?selected=Material%20Icons%20Outlined%3Asettings%3A -->
<svg width="26" height="28" viewBox="0 0 26 28" fill="none" xmlns="http://www.w3.org/2000/svg">
<path d="M22.9761 14.0072C22.9761 13.7005 22.9628 13.4072 22.9361 13.1005L25.4161 11.2205C25.9494 10.8205 26.0961 10.0738 25.7628 9.48716L23.2694 5.1805C22.9361 4.59383 22.2161 4.35383 21.6028 4.62049L18.7361 5.83383C18.2428 5.48716 17.7228 5.18049 17.1761 4.92716L16.7894 1.84716C16.7094 1.18049 16.1361 0.673828 15.4694 0.673828H10.4961C9.81612 0.673828 9.24278 1.18049 9.16278 1.84716L8.77612 4.92716C8.22945 5.18049 7.70945 5.48716 7.21612 5.83383L4.34945 4.62049C3.73612 4.35383 3.01612 4.59383 2.68278 5.1805L0.189449 9.50049C-0.143884 10.0872 0.00278266 10.8205 0.536116 11.2338L3.01612 13.1138C2.98945 13.4072 2.97612 13.7005 2.97612 14.0072C2.97612 14.3138 2.98945 14.6072 3.01612 14.9138L0.536116 16.7938C0.00278266 17.1938 -0.143884 17.9405 0.189449 18.5272L2.68278 22.8338C3.01612 23.4205 3.73612 23.6605 4.34945 23.3938L7.21612 22.1805C7.70945 22.5272 8.22945 22.8338 8.77612 23.0872L9.16278 26.1672C9.24278 26.8338 9.81612 27.3405 10.4828 27.3405H15.4561C16.1228 27.3405 16.6961 26.8338 16.7761 26.1672L17.1628 23.0872C17.7094 22.8338 18.2295 22.5272 18.7228 22.1805L21.5894 23.3938C22.2028 23.6605 22.9228 23.4205 23.2561 22.8338L25.7494 18.5272C26.0828 17.9405 25.9361 17.2072 25.4028 16.7938L22.9228 14.9138C22.9628 14.6072 22.9761 14.3138 22.9761 14.0072ZM13.0294 18.6738C10.4561 18.6738 8.36278 16.5805 8.36278 14.0072C8.36278 11.4338 10.4561 9.3405 13.0294 9.3405C15.6028 9.3405 17.6961 11.4338 17.6961 14.0072C17.6961 16.5805 15.6028 18.6738 13.0294 18.6738Z" fill="white"/>
</svg>
