<!-- https://fonts.google.com/icons?selected=Material%20Icons%3Ashopping_bag%3A -->
<svg width="40" height="40" viewBox="0 0 40 40" fill="none" xmlns="http://www.w3.org/2000/svg">
	<path d="M9.45799 36.667C8.70799 36.667 8.05533 36.389 7.49999 35.833C6.94466 35.2777 6.66699 34.625 6.66699 33.875V12.792C6.66699 12.042 6.94466 11.389 7.49999 10.833C8.05533 10.2777 8.70799 10 9.45799 10H13.625V9.70801C13.625 7.93067 14.243 6.42401 15.479 5.18801C16.715 3.95134 18.222 3.33301 20 3.33301C21.778 3.33301 23.285 3.95134 24.521 5.18801C25.757 6.42401 26.375 7.93067 26.375 9.70801V10H30.542C31.292 10 31.9447 10.2777 32.5 10.833C33.0553 11.389 33.333 12.042 33.333 12.792V33.875C33.333 34.625 33.0553 35.2777 32.5 35.833C31.9447 36.389 31.292 36.667 30.542 36.667H9.45799ZM15 17.792C15.3887 17.792 15.715 17.66 15.979 17.396C16.243 17.132 16.375 16.7917 16.375 16.375V12.792H13.625V16.375C13.625 16.7917 13.757 17.132 14.021 17.396C14.285 17.66 14.6113 17.792 15 17.792ZM16.375 10H23.625V9.70801C23.625 8.70801 23.2707 7.86101 22.562 7.16701C21.854 6.47234 21 6.12501 20 6.12501C19 6.12501 18.146 6.47234 17.438 7.16701C16.7293 7.86101 16.375 8.70801 16.375 9.70801V10ZM25 17.792C25.3887 17.792 25.715 17.66 25.979 17.396C26.243 17.132 26.375 16.7917 26.375 16.375V12.792H23.625V16.375C23.625 16.7917 23.757 17.132 24.021 17.396C24.285 17.66 24.6113 17.792 25 17.792Z" />
</svg>
	