<!-- https://fonts.google.com/icons?selected=Material%20Icons%3Adashboard%3A -->
<svg width="32" height="33" viewBox="0 0 32 33" xmlns="http://www.w3.org/2000/svg">
<g clip-path="url(#clip0_879_9764)">
<mask id="mask0_879_9764" style="mask-type:alpha" maskUnits="userSpaceOnUse" x="-1" y="0" width="33" height="33">
<rect x="-0.0390625" y="0.992188" width="32" height="32" />
</mask>
<g mask="url(#mask0_879_9764)">
<path fill-rule="evenodd" clip-rule="evenodd" d="M5.18025 30.1915C4.52025 30.1915 3.95207 29.9472 3.47569 29.4585C2.99873 28.9692 2.76025 28.3945 2.76025 27.7345V6.24846C2.76025 5.58846 2.99873 5.01382 3.47569 4.52454C3.95207 4.03585 4.52025 3.7915 5.18025 3.7915H26.7033C27.3392 3.7915 27.9077 4.03585 28.4087 4.52454C28.9097 5.01382 29.1603 5.58846 29.1603 6.24846V8.66846V11.1245V15.7815V18.2015V22.8585V25.3145V27.7345C29.1603 28.3945 28.9097 28.9692 28.4087 29.4585C27.9077 29.9472 27.3392 30.1915 26.7033 30.1915H5.18025ZM15.0601 25.3141H8.864C8.52139 25.3141 8.23392 25.198 8.0016 24.9657C7.76987 24.7339 7.654 24.4347 7.654 24.0681V19.6681C7.654 19.3255 7.76987 19.038 8.0016 18.8057C8.23392 18.5739 8.52139 18.4581 8.864 18.4581H15.0601C15.4027 18.4581 15.6899 18.5739 15.9216 18.8057C16.1539 19.038 16.2701 19.3255 16.2701 19.6681V24.0681C16.2701 24.4347 16.1539 24.7339 15.9216 24.9657C15.6899 25.198 15.4027 25.3141 15.0601 25.3141ZM23.054 13.6541H18.727C18.385 13.6541 18.0978 13.5383 17.8655 13.3065C17.6332 13.0742 17.517 12.7868 17.517 12.4441V9.91415C17.517 9.54748 17.6332 9.24828 17.8655 9.01655C18.0978 8.78423 18.385 8.66807 18.727 8.66807H23.054C23.396 8.66807 23.6832 8.78423 23.9155 9.01655C24.1478 9.24828 24.264 9.54748 24.264 9.91415V12.4441C24.264 12.7868 24.1478 13.0742 23.9155 13.3065C23.6832 13.5383 23.396 13.6541 23.054 13.6541ZM15.0601 17.2481H8.864C8.52139 17.2481 8.23392 17.1319 8.0016 16.8996C7.76987 16.6673 7.654 16.3678 7.654 16.0011V9.91415C7.654 9.54748 7.76987 9.24828 8.0016 9.01655C8.23392 8.78423 8.52139 8.66807 8.864 8.66807H15.0601C15.4027 8.66807 15.6899 8.78423 15.9216 9.01655C16.1539 9.24828 16.2701 9.54748 16.2701 9.91415V16.0011C16.2701 16.3678 16.1539 16.6673 15.9216 16.8996C15.6899 17.1319 15.4027 17.2481 15.0601 17.2481ZM23.054 25.3141H18.727C18.385 25.3141 18.0978 25.198 17.8655 24.9657C17.6332 24.7339 17.517 24.4347 17.517 24.0681V16.1111C17.517 15.7691 17.6332 15.4819 17.8655 15.2496C18.0978 15.0173 18.385 14.9011 18.727 14.9011H23.054C23.396 14.9011 23.6832 15.0173 23.9155 15.2496C24.1478 15.4819 24.264 15.7691 24.264 16.1111V24.0681C24.264 24.4347 24.1478 24.7339 23.9155 24.9657C23.6832 25.198 23.396 25.3141 23.054 25.3141Z" />
</g>
</g>
<defs>
<clipPath id="clip0_879_9764">
<rect width="32" height="32" transform="translate(0 0.992188)"/>
</clipPath>
</defs>
</svg>