<!-- https://fonts.google.com/icons?selected=Material%20Icons%3Amonitor_heart%3A -->
<svg width="32" height="33" viewBox="0 0 32 33" fill="none" xmlns="http://www.w3.org/2000/svg">
<path d="M4.9001 30.2252C4.3001 30.2252 3.77797 30.0031 3.3337 29.5588C2.8889 29.1146 2.6665 28.5924 2.6665 27.9924V18.0923H9.9665L12.3337 22.8259C12.4222 23.0259 12.5609 23.1757 12.7497 23.2755C12.939 23.3757 13.1337 23.4259 13.3337 23.4259C13.5337 23.4259 13.7281 23.3757 13.9169 23.2755C14.1057 23.1757 14.2446 23.0259 14.3337 22.8259L18.6665 14.1587L20.3337 17.4923C20.4222 17.6923 20.5612 17.8424 20.7505 17.9427C20.9393 18.0424 21.1337 18.0923 21.3337 18.0923H29.3337V27.9924C29.3337 28.5924 29.1113 29.1146 28.6665 29.5588C28.2222 30.0031 27.7001 30.2252 27.1001 30.2252H4.9001ZM13.3337 19.8259L11.6665 16.4923C11.578 16.2923 11.439 16.1421 11.2497 16.0419C11.0609 15.9421 10.8665 15.8923 10.6665 15.8923H2.6665V6.05873C2.6665 5.45873 2.8889 4.93659 3.3337 4.49233C3.77797 4.04806 4.3001 3.82593 4.9001 3.82593H27.1001C27.7001 3.82593 28.2222 4.04806 28.6665 4.49233C29.1113 4.93659 29.3337 5.45873 29.3337 6.05873V15.8923H22.0337L19.6665 11.1587C19.578 10.9587 19.439 10.82 19.2497 10.7427C19.0609 10.6648 18.8665 10.6259 18.6665 10.6259C18.4665 10.6259 18.2721 10.6648 18.0833 10.7427C17.8945 10.82 17.7556 10.9587 17.6665 11.1587L13.3337 19.8259Z" />
</svg>