<svg width="40" height="40" viewBox="0 0 40 40" fill="none" xmlns="http://www.w3.org/2000/svg">
<g id="Type=supervisor_account">
<mask style="mask-type:alpha" maskUnits="userSpaceOnUse" x="0" y="0" width="40" height="40">
<rect id="Bounding box" width="40" height="40" />
</mask>
<g>
<path id="supervisor_account" d="M28.4444 24.4165C27.3244 24.4165 26.3777 24.0299 25.6044 23.2565C24.831 22.4832 24.4444 21.5365 24.4444 20.4165C24.4444 19.2965 24.831 18.3499 25.6044 17.5765C26.3777 16.8032 27.3244 16.4165 28.4444 16.4165C29.5644 16.4165 30.511 16.8032 31.2844 17.5765C32.0577 18.3499 32.4444 19.2965 32.4444 20.4165C32.4444 21.5365 32.0577 22.4832 31.2844 23.2565C30.511 24.0299 29.5644 24.4165 28.4444 24.4165ZM21.611 33.3332C21.2175 33.3332 20.8877 33.2001 20.6215 32.9339C20.3552 32.6677 20.2221 32.3378 20.2221 31.9443V31.1388C20.2221 30.4926 20.3819 29.8936 20.7013 29.3417C21.0207 28.7897 21.4721 28.3702 22.0555 28.0832C23.0555 27.6017 24.0902 27.2406 25.1596 26.9999C26.2291 26.7591 27.324 26.6388 28.4444 26.6388C29.5647 26.6388 30.6643 26.7568 31.743 26.9929C32.8217 27.229 33.8518 27.5925 34.8333 28.0832C35.4351 28.3517 35.8911 28.7649 36.2013 29.3226C36.5115 29.8804 36.6666 30.4858 36.6666 31.1388V31.9443C36.6666 32.3378 36.5335 32.6677 36.2673 32.9339C36.0011 33.2001 35.6712 33.3332 35.2777 33.3332H21.611ZM16.6666 19.9721C14.8333 19.9721 13.3101 19.3656 12.0971 18.1527C10.8842 16.9397 10.2777 15.4165 10.2777 13.5832C10.2777 11.7499 10.8842 10.2267 12.0971 9.01379C13.3101 7.80082 14.8333 7.19434 16.6666 7.19434C18.4999 7.19434 20.0231 7.80082 21.236 9.01379C22.449 10.2267 23.0555 11.7499 23.0555 13.5832C23.0555 15.4165 22.449 16.9397 21.236 18.1527C20.0231 19.3656 18.4999 19.9721 16.6666 19.9721ZM3.33325 29.1665C3.33325 28.2036 3.57863 27.3263 4.06938 26.5346C4.5601 25.743 5.24066 25.148 6.11104 24.7499C7.77771 23.9721 9.49468 23.3564 11.262 22.9027C13.0293 22.449 14.8308 22.2221 16.6666 22.2221C17.5046 22.2221 18.3425 22.2832 19.1805 22.4055C20.0184 22.5277 20.8564 22.6703 21.6943 22.8332L19.3333 25.1943C18.6203 25.9073 18.1272 26.7267 17.8541 27.6527C17.5809 28.5786 17.4444 29.5462 17.4444 30.5555V31.8749C17.4444 32.1594 17.4959 32.4262 17.599 32.6752C17.7021 32.9242 17.8681 33.1435 18.0972 33.3332H6.111C5.34711 33.3332 4.69318 33.0612 4.14921 32.5173C3.60524 31.9733 3.33325 31.3194 3.33325 30.5555V29.1665Z" />
</g>
</g>
</svg>
