<svg width="40" height="40" viewBox="0 0 40 40" fill="none" xmlns="http://www.w3.org/2000/svg">
<mask id="mask0_1630_3779" style="mask-type:alpha" maskUnits="userSpaceOnUse" x="0" y="0" width="40" height="40">
<rect width="40" height="40" fill="#D9D9D9"/>
</mask>
<g mask="url(#mask0_1630_3779)">
<path d="M14.542 31.5205L17 33.7705C17.528 34.2705 18.153 34.5205 18.875 34.5205C19.597 34.5205 20.222 34.2705 20.75 33.7705L23.167 31.5625C24.0246 30.7769 24.8541 29.9978 25.6556 29.2253C23.5149 27.3924 22.1562 24.6571 22.1562 21.6016C22.1562 16.083 26.5879 11.6094 32.0547 11.6094C33.2379 11.6094 34.3727 11.819 35.4245 12.2034C35.137 10.3549 34.3218 8.7593 32.979 7.41649C31.271 5.70849 29.167 4.85449 26.667 4.85449C25.1943 4.85449 23.8053 5.18783 22.5 5.85449C21.1947 6.52116 19.9863 7.54883 18.875 8.93749C17.847 7.54883 16.6527 6.52116 15.292 5.85449C13.9307 5.18783 12.5277 4.85449 11.083 4.85449C8.58301 4.85449 6.47901 5.70849 4.77101 7.41649C3.06234 9.12516 2.20801 11.2432 2.20801 13.7705C2.20801 16.9372 3.44434 19.9302 5.91701 22.7495C8.38901 25.5695 11.264 28.4932 14.542 31.5205Z" />
<path d="M25.5 21.6641C25.5 20.909 26.1121 20.2969 26.8672 20.2969H37.4609C38.216 20.2969 38.8281 20.909 38.8281 21.6641C38.8281 22.4191 38.216 23.0312 37.4609 23.0312H26.8672C26.1121 23.0312 25.5 22.4191 25.5 21.6641Z" />
</g>
</svg>
