<!-- https://fonts.google.com/icons?selected=Material%20Icons%20Outlined%3Afile_upload%3A -->
<svg width="40" height="40" viewBox="0 0 40 40" xmlns="http://www.w3.org/2000/svg">
<path d="M20 26.5835C19.6113 26.5835 19.285 26.4515 19.021 26.1875C18.757 25.9235 18.625 25.5832 18.625 25.1665V11.7505L14.833 15.5415C14.5557 15.8195 14.2293 15.9515 13.854 15.9375C13.4793 15.9235 13.153 15.7778 12.875 15.5005C12.597 15.2225 12.458 14.8892 12.458 14.5005C12.458 14.1112 12.597 13.7778 12.875 13.5005L19.042 7.3335C19.1807 7.19483 19.3333 7.0975 19.5 7.0415C19.6667 6.98616 19.8333 6.9585 20 6.9585C20.1947 6.9585 20.3683 6.98616 20.521 7.0415C20.6737 7.0975 20.8193 7.19483 20.958 7.3335L27.167 13.5415C27.4443 13.8195 27.583 14.1458 27.583 14.5205C27.583 14.8958 27.4443 15.2225 27.167 15.5005C26.889 15.7778 26.5557 15.9165 26.167 15.9165C25.7777 15.9165 25.4443 15.7778 25.167 15.5005L21.375 11.7505V25.1665C21.375 25.5832 21.243 25.9235 20.979 26.1875C20.715 26.4515 20.3887 26.5835 20 26.5835ZM9.45799 33.0415C8.70799 33.0415 8.05533 32.7638 7.49999 32.2085C6.94466 31.6532 6.66699 31.0005 6.66699 30.2505V26.0005C6.66699 25.6112 6.79866 25.2845 7.06199 25.0205C7.32599 24.7572 7.65266 24.6255 8.04199 24.6255C8.45866 24.6255 8.79866 24.7572 9.06199 25.0205C9.32599 25.2845 9.45799 25.6112 9.45799 26.0005V30.2505H30.542V26.0005C30.542 25.6112 30.6807 25.2845 30.958 25.0205C31.236 24.7572 31.5693 24.6255 31.958 24.6255C32.3473 24.6255 32.674 24.7572 32.938 25.0205C33.2013 25.2845 33.333 25.6112 33.333 26.0005V30.2505C33.333 31.0005 33.0553 31.6532 32.5 32.2085C31.9447 32.7638 31.292 33.0415 30.542 33.0415H9.45799Z"/>
</svg>
