<svg width="40" height="40" viewBox="0 0 40 40" xmlns="http://www.w3.org/2000/svg">
<mask id="mask0_1781_3777" style="mask-type:alpha" maskUnits="userSpaceOnUse" x="0" y="0" width="40" height="40">
<rect width="40" height="40" />
</mask>
<g mask="url(#mask0_1781_3777)">
<path d="M34.042 38.417L2.41699 6.792C2.16699 6.542 2.04199 6.22933 2.04199 5.854C2.04199 5.47933 2.18066 5.153 2.45799 4.875C2.73599 4.625 3.06266 4.5 3.43799 4.5C3.81266 4.5 4.13899 4.625 4.41699 4.875L36.042 36.5C36.292 36.75 36.417 37.0627 36.417 37.438C36.417 37.8127 36.278 38.139 36 38.417C35.722 38.6943 35.3957 38.833 35.021 38.833C34.6457 38.833 34.3193 38.6943 34.042 38.417ZM30.042 26.583L10.625 7.167H27.25C28 7.167 28.6527 7.44467 29.208 8C29.764 8.55533 30.042 9.208 30.042 9.958V18.417L35.5 12.958C35.75 12.708 36.014 12.6457 36.292 12.771C36.5693 12.8957 36.708 13.111 36.708 13.417V27.583C36.708 27.889 36.5693 28.1043 36.292 28.229C36.014 28.3543 35.75 28.292 35.5 28.042L30.042 22.583V26.583ZM6.66699 7.167L30.042 30.542C30.014 31.3473 29.743 32.0973 29.229 32.792C28.715 33.486 28.0413 33.833 27.208 33.833H6.12499C5.37499 33.833 4.72233 33.5553 4.16699 33C3.61099 32.4447 3.33299 31.792 3.33299 31.042V9.958C3.33299 9.12467 3.68033 8.45133 4.37499 7.938C5.06966 7.424 5.83366 7.167 6.66699 7.167Z" />
</g>
</svg>
