<svg width="40" height="40" viewBox="0 0 40 40" xmlns="http://www.w3.org/2000/svg">
<mask id="mask0_1781_3773" style="mask-type:alpha" maskUnits="userSpaceOnUse" x="0" y="0" width="40" height="40">
<rect width="40" height="40" />
</mask>
<g mask="url(#mask0_1781_3773)">
<path d="M6.12501 33.833C5.37501 33.833 4.72234 33.5553 4.16701 33C3.61101 32.4447 3.33301 31.792 3.33301 31.042V9.95799C3.33301 9.20799 3.61101 8.55533 4.16701 7.99999C4.72234 7.44466 5.37501 7.16699 6.12501 7.16699H27.208C27.958 7.16699 28.611 7.44466 29.167 7.99999C29.7223 8.55533 30 9.20799 30 9.95799V18.417L35.458 12.958C35.708 12.708 35.972 12.6457 36.25 12.771C36.528 12.8957 36.667 13.111 36.667 13.417V27.583C36.667 27.889 36.528 28.1043 36.25 28.229C35.972 28.3543 35.708 28.292 35.458 28.042L30 22.583V31.042C30 31.792 29.7223 32.4447 29.167 33C28.611 33.5553 27.958 33.833 27.208 33.833H6.12501Z" />
</g>
</svg>
