<!-- https://fonts.google.com/icons?selected=Material%20Icons%20Round%3Avisibility_off%3A -->
<svg width="40" height="40" viewBox="0 0 40 40" xmlns="http://www.w3.org/2000/svg">
<path d="M31.792 27.792L26.417 22.417C26.667 21.9723 26.8613 21.4653 27 20.896C27.1387 20.3267 27.208 19.7503 27.208 19.167C27.208 17.167 26.5067 15.4657 25.104 14.063C23.7013 12.6597 22 11.958 20 11.958C19.4167 11.958 18.8473 12.0207 18.292 12.146C17.736 12.2707 17.222 12.472 16.75 12.75L12.292 8.24999C13.3193 7.80533 14.5343 7.43033 15.937 7.12499C17.3403 6.81966 18.7363 6.66699 20.125 6.66699C23.9583 6.66699 27.4583 7.70166 30.625 9.77099C33.7917 11.8403 36.1943 14.5973 37.833 18.042C37.9163 18.1807 37.972 18.3473 38 18.542C38.028 18.736 38.042 18.9443 38.042 19.167C38.042 19.389 38.028 19.604 38 19.812C37.972 20.0207 37.9163 20.1943 37.833 20.333C37.139 21.833 36.278 23.208 35.25 24.458C34.222 25.708 33.0693 26.8193 31.792 27.792ZM32.667 36.458L26.667 30.542C25.6943 30.9027 24.6387 31.1803 23.5 31.375C22.3613 31.5697 21.1947 31.667 20 31.667C16.1113 31.667 12.5767 30.632 9.39601 28.562C6.21534 26.4927 3.80567 23.736 2.16701 20.292C2.08367 20.1527 2.02801 19.986 2.00001 19.792C1.97201 19.5973 1.95801 19.389 1.95801 19.167C1.95801 18.9443 1.97901 18.729 2.02101 18.521C2.06234 18.3123 2.11101 18.1387 2.16701 18C2.75034 16.75 3.47934 15.5557 4.35401 14.417C5.22934 13.2777 6.23634 12.208 7.37501 11.208L3.29201 7.12499C3.01401 6.87499 2.87501 6.56266 2.87501 6.18799C2.87501 5.81266 3.01401 5.48599 3.29201 5.20799C3.56934 4.93066 3.90267 4.79199 4.29201 4.79199C4.68067 4.79199 5.01401 4.93066 5.29201 5.20799L34.625 34.542C34.875 34.792 35 35.0973 35 35.458C35 35.8193 34.875 36.139 34.625 36.417C34.375 36.6943 34.0557 36.833 33.667 36.833C33.2777 36.833 32.9443 36.708 32.667 36.458ZM20 26.375C20.3613 26.375 20.7363 26.3473 21.125 26.292C21.5137 26.236 21.861 26.1527 22.167 26.042L13.125 17C13.0137 17.3333 12.9303 17.6807 12.875 18.042C12.8197 18.4027 12.792 18.7777 12.792 19.167C12.792 21.1943 13.4933 22.9027 14.896 24.292C16.2987 25.6807 18 26.375 20 26.375ZM24.375 20.375L18.792 14.792C20.4587 14.264 21.9517 14.625 23.271 15.875C24.5903 17.125 24.9583 18.625 24.375 20.375Z"/>
</svg>
