<!-- https://fonts.google.com/icons?selected=Material%20Icons%20Round%3Avisibility%3A -->
<svg width="40" height="40" viewBox="0 0 40 40" xmlns="http://www.w3.org/2000/svg">
<path d="M20 26.375C22 26.375 23.7013 25.6737 25.104 24.271C26.5067 22.8683 27.208 21.167 27.208 19.167C27.208 17.167 26.5067 15.4657 25.104 14.063C23.7013 12.6597 22 11.958 20 11.958C18 11.958 16.2987 12.6597 14.896 14.063C13.4933 15.4657 12.792 17.167 12.792 19.167C12.792 21.167 13.4933 22.8683 14.896 24.271C16.2987 25.6737 18 26.375 20 26.375ZM20 23.792C18.722 23.792 17.6317 23.3407 16.729 22.438C15.8263 21.5347 15.375 20.4443 15.375 19.167C15.375 17.889 15.8263 16.7987 16.729 15.896C17.6317 14.9933 18.722 14.542 20 14.542C21.278 14.542 22.3683 14.9933 23.271 15.896C24.1737 16.7987 24.625 17.889 24.625 19.167C24.625 20.4443 24.1737 21.5347 23.271 22.438C22.3683 23.3407 21.278 23.792 20 23.792ZM20 31.667C16.1667 31.667 12.6667 30.632 9.50001 28.562C6.33334 26.4927 3.90267 23.736 2.20801 20.292C2.12467 20.1527 2.06234 19.986 2.02101 19.792C1.97901 19.5973 1.95801 19.389 1.95801 19.167C1.95801 18.9443 1.97901 18.736 2.02101 18.542C2.06234 18.3473 2.12467 18.1807 2.20801 18.042C3.90267 14.5973 6.33334 11.8403 9.50001 9.77099C12.6667 7.70166 16.1667 6.66699 20 6.66699C23.8333 6.66699 27.3333 7.70166 30.5 9.77099C33.6667 11.8403 36.0973 14.5973 37.792 18.042C37.8753 18.1807 37.9377 18.3473 37.979 18.542C38.021 18.736 38.042 18.9443 38.042 19.167C38.042 19.389 38.021 19.5973 37.979 19.792C37.9377 19.986 37.8753 20.1527 37.792 20.292C36.0973 23.736 33.6667 26.4927 30.5 28.562C27.3333 30.632 23.8333 31.667 20 31.667Z"/>
</svg>
