<!-- https://fonts.google.com/icons?selected=Material%20Symbols%20Rounded%3Avolume_up%3AFILL%400%3Bwght%40400%3BGRAD%400%3Bopsz%4048 -->

<svg width="40" height="40" viewBox="0 0 40 40" xmlns="http://www.w3.org/2000/svg">
<path d="M25.25 33.958C24.778 34.1247 24.3407 34.0554 23.938 33.75C23.5347 33.4447 23.333 33.028 23.333 32.5C23.333 32.25 23.4027 32.0277 23.542 31.833C23.6807 31.639 23.875 31.5004 24.125 31.417C26.5417 30.5277 28.493 29.0484 29.979 26.979C31.465 24.9097 32.208 22.5694 32.208 19.958C32.208 17.3474 31.465 15.0004 29.979 12.917C28.493 10.8337 26.5417 9.36136 24.125 8.50003C23.875 8.4167 23.6807 8.2707 23.542 8.06203C23.4027 7.85403 23.333 7.62503 23.333 7.37503C23.333 6.84703 23.5347 6.43736 23.938 6.14603C24.3407 5.85403 24.778 5.79136 25.25 5.95803C28.1667 7.04136 30.5207 8.85403 32.312 11.396C34.104 13.9374 35 16.7914 35 19.958C35 23.1247 34.104 25.979 32.312 28.521C30.5207 31.0624 28.1667 32.8747 25.25 33.958ZM6.375 25C5.98633 25 5.66 24.868 5.396 24.604C5.132 24.34 5 24.0137 5 23.625V16.375C5 15.9864 5.132 15.66 5.396 15.396C5.66 15.132 5.98633 15 6.375 15H11.667L17.625 9.04203C18.0697 8.59736 18.5767 8.49303 19.146 8.72903C19.7153 8.96503 20 9.3887 20 10V30C20 30.6114 19.7153 31.035 19.146 31.271C18.5767 31.507 18.0697 31.4027 17.625 30.958L11.667 25H6.375ZM22.792 26.875V13.042C24.2087 13.5694 25.3473 14.472 26.208 15.75C27.0693 17.028 27.5 18.4447 27.5 20C27.5 21.5834 27.0693 23 26.208 24.25C25.3473 25.5 24.2087 26.375 22.792 26.875Z" />
</svg>

