<svg width="40" height="40" viewBox="0 0 40 40" xmlns="http://www.w3.org/2000/svg">
<path d="M32.583 36.667L28.25 32.333C27.75 32.6663 27.236 32.972 26.708 33.25C26.1807 33.528 25.6254 33.764 25.042 33.958C24.5694 34.1247 24.1317 34.0553 23.729 33.75C23.3264 33.4447 23.125 33.028 23.125 32.5C23.125 32.25 23.2014 32.0277 23.354 31.833C23.5067 31.639 23.6944 31.5003 23.917 31.417C24.3337 31.2777 24.7364 31.118 25.125 30.938C25.5137 30.7573 25.8887 30.5557 26.25 30.333L19.792 23.875L19.792 30C19.792 30.6113 19.5074 31.035 18.938 31.271C18.368 31.507 17.8747 31.4027 17.458 30.958L11.458 25L6.20803 25C5.79137 25 5.45137 24.868 5.18803 24.604C4.92403 24.34 4.79203 24.0137 4.79203 23.625L4.79203 16.375C4.79203 15.9863 4.92403 15.66 5.18803 15.396C5.45137 15.132 5.79137 15 6.20803 15L10.917 15L3.12503 7.20801C2.84703 6.93067 2.71503 6.59734 2.72903 6.20801C2.74303 5.81934 2.87503 5.48601 3.12503 5.20801C3.40303 4.95801 3.72937 4.83301 4.10403 4.83301C4.47937 4.83301 4.8057 4.95801 5.08303 5.20801L34.583 34.708C34.861 34.958 35 35.2777 35 35.667C35 36.0557 34.861 36.389 34.583 36.667C34.3057 36.9443 33.9724 37.083 33.583 37.083C33.1944 37.083 32.861 36.9443 32.583 36.667ZM25.042 5.95801C27.986 7.04134 30.347 8.85401 32.125 11.396C33.903 13.9373 34.792 16.7913 34.792 19.958C34.792 21.4027 34.5974 22.8057 34.208 24.167C33.8194 25.5277 33.236 26.8053 32.458 28L30.458 26C30.986 25.0833 31.382 24.118 31.646 23.104C31.91 22.09 32.042 21.0413 32.042 19.958C32.042 17.3193 31.2987 14.9443 29.812 12.833C28.326 10.7223 26.361 9.26401 23.917 8.45801C23.667 8.37468 23.4724 8.23601 23.333 8.04201C23.1944 7.84734 23.125 7.62501 23.125 7.37501C23.125 6.84701 23.3334 6.43734 23.75 6.14601C24.1667 5.85401 24.5974 5.79134 25.042 5.95801ZM26.875 22.417L23.125 18.667L23.125 13.25C24.4304 13.8613 25.4514 14.778 26.188 16C26.924 17.222 27.292 18.5553 27.292 20C27.292 20.4167 27.2574 20.8263 27.188 21.229C27.118 21.6317 27.0137 22.0277 26.875 22.417ZM19.792 15.333L15.458 11L17.458 9.04201C17.8747 8.59734 18.368 8.49301 18.938 8.72901C19.5074 8.96501 19.792 9.38868 19.792 10L19.792 15.333Z" />
</svg>
