<?xml version="1.0" standalone="no"?>
<!DOCTYPE svg PUBLIC "-//W3C//DTD SVG 20010904//EN"
 "http://www.w3.org/TR/2001/REC-SVG-20010904/DTD/svg10.dtd">
<svg version="1.0" xmlns="http://www.w3.org/2000/svg"
 width="700.000000pt" height="700.000000pt" viewBox="0 0 700.000000 700.000000"
 preserveAspectRatio="xMidYMid meet">
<metadata>
Created by potrace 1.14, written by Peter Selinger 2001-2017
</metadata>
<g transform="translate(0.000000,700.000000) scale(0.100000,-0.100000)"
fill="#000000" stroke="none">
<path d="M2378 6995 c-1 -1 -34 -6 -73 -9 -38 -4 -77 -9 -85 -11 -8 -2 -35 -6
-60 -9 -56 -8 -100 -15 -122 -22 -9 -3 -25 -6 -35 -8 -204 -40 -490 -152 -703
-274 -82 -47 -275 -174 -290 -191 -3 -3 -27 -24 -55 -46 -82 -66 -94 -76 -184
-166 -90 -89 -166 -171 -191 -205 -8 -12 -43 -58 -77 -103 -205 -270 -366
-623 -443 -971 -19 -85 -23 -113 -36 -205 -3 -27 -8 -59 -11 -70 -3 -11 -6
-119 -8 -240 -3 -273 16 -443 75 -677 150 -589 516 -1119 1015 -1469 242 -170
596 -333 845 -389 151 -34 228 -48 300 -56 30 -3 64 -8 75 -9 11 -2 28 -4 38
-4 16 -1 17 -33 17 -523 0 -317 4 -548 11 -588 39 -242 221 -438 465 -500 75
-19 119 -20 1833 -19 1163 0 1775 3 1811 10 184 35 361 165 440 326 71 143 64
-38 67 1958 3 1749 2 1802 -16 1867 -35 121 -79 196 -166 283 -102 101 -217
160 -350 179 -16 2 -328 5 -691 5 l-661 1 -13 63 c-8 34 -14 64 -15 67 -1 3
-7 32 -14 64 -7 33 -31 114 -53 180 -167 504 -483 939 -917 1264 -83 62 -130
92 -254 166 -139 82 -385 185 -557 234 -125 36 -219 56 -360 77 -19 3 -51 8
-70 10 -38 6 -476 15 -482 10z m2739 -2170 c1 -16 4 -39 7 -50 12 -47 21 -211
21 -360 -1 -142 -11 -331 -20 -345 -1 -3 -6 -27 -9 -55 -40 -299 -184 -678
-368 -968 -361 -569 -955 -988 -1600 -1131 -111 -24 -137 -29 -228 -41 -25 -3
-61 -8 -80 -11 -57 -9 -445 -13 -458 -5 -9 5 -11 292 -9 1252 l2 1244 23 68
c70 207 235 362 444 417 70 18 121 19 1173 17 l1100 -2 2 -30z"/>
</g>
</svg>
