<?xml version="1.0" standalone="no"?>
<!DOCTYPE svg PUBLIC "-//W3C//DTD SVG 20010904//EN"
 "http://www.w3.org/TR/2001/REC-SVG-20010904/DTD/svg10.dtd">
<svg version="1.0" xmlns="http://www.w3.org/2000/svg"
 width="700.000000pt" height="700.000000pt" viewBox="0 0 700.000000 700.000000"
 preserveAspectRatio="xMidYMid meet">
<metadata>
Created by potrace 1.14, written by Peter Selinger 2001-2017
</metadata>
<g transform="translate(0.000000,700.000000) scale(0.100000,-0.100000)"
fill="#000000" stroke="none">
<path d="M4768 6885 c-2 -1 -30 -5 -63 -9 -66 -7 -107 -13 -145 -22 -14 -3
-36 -8 -50 -10 -155 -28 -449 -151 -630 -262 -118 -73 -227 -152 -321 -234
-37 -32 -69 -58 -73 -58 -3 0 -45 32 -94 72 -250 205 -562 365 -847 434 -168
40 -285 52 -470 49 -179 -3 -182 -4 -339 -36 -495 -102 -956 -430 -1258 -894
-55 -84 -187 -335 -200 -380 -4 -11 -20 -57 -36 -102 -54 -148 -97 -334 -119
-513 -10 -82 -10 -422 0 -515 6 -57 13 -102 22 -145 1 -3 5 -25 9 -50 43 -247
163 -558 319 -821 117 -199 330 -473 411 -528 72 -50 181 -69 272 -48 71 17
126 66 592 531 266 264 485 483 488 485 2 3 226 -216 497 -485 554 -553 535
-538 677 -538 145 1 105 -32 838 698 359 358 664 670 678 694 102 173 37 385
-146 470 -44 21 -70 26 -130 26 -143 -1 -119 18 -712 -573 -290 -289 -530
-523 -532 -520 -3 2 -222 221 -488 486 -525 524 -528 526 -651 539 -63 6 -152
-15 -202 -48 -16 -12 -240 -230 -497 -486 -257 -257 -469 -464 -471 -462 -49
60 -151 253 -205 390 -83 211 -122 405 -124 625 -3 325 82 628 254 902 23 37
45 70 48 73 3 3 24 30 46 60 104 139 293 296 454 378 347 178 707 181 1073 9
191 -90 363 -220 556 -421 111 -115 195 -156 305 -150 97 5 143 31 252 139
177 174 231 222 339 301 479 350 1003 393 1442 117 107 -67 157 -107 249 -199
64 -64 194 -224 194 -238 0 -3 17 -34 38 -68 68 -113 156 -337 176 -448 2 -14
7 -36 10 -50 25 -111 35 -323 23 -470 -16 -192 -65 -384 -144 -568 -120 -282
-263 -490 -559 -812 -22 -25 -65 -72 -95 -105 -82 -92 -194 -217 -220 -246
-39 -42 -241 -268 -304 -338 -16 -19 -39 -45 -51 -57 -12 -13 -52 -58 -90
-101 -38 -43 -81 -90 -95 -105 -24 -25 -112 -125 -162 -182 -10 -12 -51 -57
-90 -100 -85 -94 -73 -79 -171 -191 -44 -50 -89 -99 -100 -111 -12 -12 -50
-54 -86 -94 -36 -41 -69 -78 -75 -84 -30 -33 -175 -195 -196 -219 -13 -16 -40
-46 -59 -66 -19 -21 -82 -90 -140 -155 l-104 -117 -26 28 c-14 16 -63 71 -110
123 -47 52 -89 100 -95 106 -44 49 -162 179 -170 188 -5 6 -44 49 -85 96 -41
47 -78 87 -81 90 -3 3 -29 32 -59 65 -29 33 -71 80 -94 105 -22 25 -72 81
-111 125 -184 207 -215 236 -283 268 -107 50 -227 37 -327 -34 -122 -88 -167
-263 -102 -399 23 -49 153 -202 386 -455 25 -28 64 -71 86 -96 22 -25 74 -83
116 -129 42 -47 121 -134 174 -195 54 -60 101 -112 104 -115 3 -3 42 -45 86
-95 44 -49 82 -92 85 -95 3 -3 23 -25 45 -50 225 -255 258 -288 325 -319 76
-36 201 -36 274 -1 63 30 76 43 291 285 39 43 77 86 85 95 8 9 49 54 90 100
41 47 82 92 90 100 8 8 49 53 90 100 41 46 82 92 90 100 8 9 49 54 90 100 157
176 174 195 184 206 6 6 36 39 66 74 30 34 64 72 75 84 11 12 55 60 97 107 42
46 85 94 95 106 10 12 51 57 89 100 39 43 111 123 160 178 49 55 102 114 119
131 16 18 49 54 71 80 23 27 55 63 70 80 32 34 71 76 194 214 47 52 87 97 90
100 4 4 172 192 365 409 17 18 39 43 50 56 37 42 60 70 125 155 36 47 67 87
70 90 5 5 22 30 114 173 187 291 346 716 382 1029 3 29 10 73 14 97 8 47 6
460 -3 501 -3 14 -8 47 -12 73 -4 27 -8 59 -11 70 -2 12 -7 38 -10 57 -27 168
-121 433 -221 620 -217 408 -535 717 -933 907 -159 75 -356 132 -560 162 -58
8 -354 13 -362 6z"/>
</g>
</svg>
